M48
; DRILL file {KiCad (6.0.8)} date Fri Apr 21 18:28:08 2023
; FORMAT={-:-/ absolute / metric / decimal}
; #@! TF.CreationDate,2023-04-21T18:28:08-07:00
; #@! TF.GenerationSoftware,Kicad,Pcbnew,(6.0.8)
; #@! TF.FileFunction,Plated,1,2,PTH
FMAT,2
METRIC
; #@! TA.AperFunction,Plated,PTH,ViaDrill
T1C0.200
; #@! TA.AperFunction,Plated,PTH,ViaDrill
T2C0.400
; #@! TA.AperFunction,Plated,PTH,ViaDrill
T3C0.500
; #@! TA.AperFunction,Plated,PTH,ComponentDrill
T4C0.600
; #@! TA.AperFunction,Plated,PTH,ComponentDrill
T5C0.900
; #@! TA.AperFunction,Plated,PTH,ComponentDrill
T6C1.000
; #@! TA.AperFunction,Plated,PTH,ComponentDrill
T7C1.016
%
G90
G05
T1
X151.859Y-71.284
X152.367Y-65.696
X152.519Y-67.22
X154.907Y-62.445
X154.907Y-62.953
X155.669Y-62.445
X155.669Y-62.953
X156.674Y-65.056
X157.05Y-70.95
X157.48Y-61.61
X157.599Y-66.712
X157.599Y-67.271
X158.61Y-63.45
X158.615Y-66.255
X161.206Y-81.038
X161.257Y-84.797
X171.011Y-85.813
X171.061Y-83.121
T2
X145.542Y-104.902
X145.847Y-76.911
X146.177Y-106.045
X146.507Y-81.686
X147.49Y-80.733
X150.589Y-65.645
X155.11Y-66.433
X155.364Y-77.482
X155.923Y-83.273
X157.091Y-91.198
X157.091Y-92.163
X158.26Y-91.198
X158.311Y-92.265
X162.052Y-60.198
X164.153Y-82.816
X164.86Y-86.873
X164.864Y-86.88
X166.439Y-89.166
X166.845Y-93.585
X167.81Y-55.13
X168.521Y-71.284
X170.35Y-58.127
X170.452Y-52.285
X170.655Y-74.586
X170.807Y-89.775
X171.773Y-84.441
X174.313Y-76.263
X175.583Y-57.873
T3
X175.633Y-52.387
T4
X171.759Y-62.443
X171.759Y-71.083
X175.939Y-62.443
X175.939Y-71.083
T5
X151.122Y-102.362
X151.122Y-104.902
X151.122Y-107.442
X151.122Y-109.982
X153.662Y-103.632
X153.662Y-106.172
X153.662Y-108.712
X153.662Y-111.252
T6
X164.229Y-66.179
X167.15Y-66.23
T7
X118.666Y-69.966
X118.666Y-72.506
X118.666Y-75.046
X118.666Y-77.586
X118.666Y-80.126
X118.666Y-82.666
X118.666Y-85.206
X118.666Y-87.746
X118.666Y-90.286
X118.666Y-92.826
X118.666Y-95.366
X118.666Y-97.906
X118.666Y-100.446
X118.666Y-102.986
X125.4Y-72.417
X125.4Y-102.322
X132.4Y-72.417
X132.4Y-102.322
X138.986Y-69.966
X138.986Y-72.506
X138.986Y-75.046
X138.986Y-77.586
X138.986Y-80.126
X138.986Y-82.666
X138.986Y-85.206
X138.986Y-87.746
X138.986Y-90.286
X138.986Y-92.826
X138.986Y-95.366
X138.986Y-97.906
X138.986Y-100.446
X138.986Y-102.986
T0
M30
