%TF.GenerationSoftware,KiCad,Pcbnew,(6.0.8)*%
%TF.CreationDate,2023-04-21T18:27:59-07:00*%
%TF.ProjectId,Capstone_PCB,43617073-746f-46e6-955f-5043422e6b69,rev?*%
%TF.SameCoordinates,Original*%
%TF.FileFunction,Legend,Top*%
%TF.FilePolarity,Positive*%
%FSLAX46Y46*%
G04 Gerber Fmt 4.6, Leading zero omitted, Abs format (unit mm)*
G04 Created by KiCad (PCBNEW (6.0.8)) date 2023-04-21 18:27:59*
%MOMM*%
%LPD*%
G01*
G04 APERTURE LIST*
%ADD10C,0.150000*%
%ADD11C,0.062500*%
%ADD12C,0.093472*%
%ADD13C,0.170688*%
%ADD14C,0.119969*%
%ADD15C,0.075000*%
%ADD16C,0.120000*%
%ADD17C,0.127000*%
%ADD18C,0.200000*%
%ADD19C,0.203200*%
%ADD20C,0.101600*%
%ADD21C,3.650000*%
G04 APERTURE END LIST*
D10*
X155448000Y-61722000D02*
X155956000Y-61722000D01*
X155702000Y-61468000D02*
X155956000Y-61722000D01*
X155956000Y-61722000D02*
X155702000Y-61468000D01*
X155448000Y-61214000D02*
X155448000Y-61722000D01*
X157734000Y-63246000D02*
X157480000Y-63246000D01*
D11*
X174145342Y-81702200D02*
X174097723Y-81678390D01*
X174026295Y-81678390D01*
X173954866Y-81702200D01*
X173907247Y-81749819D01*
X173883438Y-81797438D01*
X173859628Y-81892676D01*
X173859628Y-81964104D01*
X173883438Y-82059342D01*
X173907247Y-82106961D01*
X173954866Y-82154580D01*
X174026295Y-82178390D01*
X174073914Y-82178390D01*
X174145342Y-82154580D01*
X174169152Y-82130771D01*
X174169152Y-81964104D01*
X174073914Y-81964104D01*
X174478676Y-81678390D02*
X174573914Y-81678390D01*
X174621533Y-81702200D01*
X174669152Y-81749819D01*
X174692961Y-81845057D01*
X174692961Y-82011723D01*
X174669152Y-82106961D01*
X174621533Y-82154580D01*
X174573914Y-82178390D01*
X174478676Y-82178390D01*
X174431057Y-82154580D01*
X174383438Y-82106961D01*
X174359628Y-82011723D01*
X174359628Y-81845057D01*
X174383438Y-81749819D01*
X174431057Y-81702200D01*
X174478676Y-81678390D01*
X175002485Y-81678390D02*
X175097723Y-81678390D01*
X175145342Y-81702200D01*
X175192961Y-81749819D01*
X175216771Y-81845057D01*
X175216771Y-82011723D01*
X175192961Y-82106961D01*
X175145342Y-82154580D01*
X175097723Y-82178390D01*
X175002485Y-82178390D01*
X174954866Y-82154580D01*
X174907247Y-82106961D01*
X174883438Y-82011723D01*
X174883438Y-81845057D01*
X174907247Y-81749819D01*
X174954866Y-81702200D01*
X175002485Y-81678390D01*
X175431057Y-82178390D02*
X175431057Y-81678390D01*
X175550104Y-81678390D01*
X175621533Y-81702200D01*
X175669152Y-81749819D01*
X175692961Y-81797438D01*
X175716771Y-81892676D01*
X175716771Y-81964104D01*
X175692961Y-82059342D01*
X175669152Y-82106961D01*
X175621533Y-82154580D01*
X175550104Y-82178390D01*
X175431057Y-82178390D01*
X173730580Y-84772371D02*
X173706771Y-84796180D01*
X173635342Y-84819990D01*
X173587723Y-84819990D01*
X173516295Y-84796180D01*
X173468676Y-84748561D01*
X173444866Y-84700942D01*
X173421057Y-84605704D01*
X173421057Y-84534276D01*
X173444866Y-84439038D01*
X173468676Y-84391419D01*
X173516295Y-84343800D01*
X173587723Y-84319990D01*
X173635342Y-84319990D01*
X173706771Y-84343800D01*
X173730580Y-84367609D01*
X173944866Y-84819990D02*
X173944866Y-84319990D01*
X173944866Y-84558085D02*
X174230580Y-84558085D01*
X174230580Y-84819990D02*
X174230580Y-84319990D01*
X174444866Y-84677133D02*
X174682961Y-84677133D01*
X174397247Y-84819990D02*
X174563914Y-84319990D01*
X174730580Y-84819990D01*
X175182961Y-84819990D02*
X175016295Y-84581895D01*
X174897247Y-84819990D02*
X174897247Y-84319990D01*
X175087723Y-84319990D01*
X175135342Y-84343800D01*
X175159152Y-84367609D01*
X175182961Y-84415228D01*
X175182961Y-84486657D01*
X175159152Y-84534276D01*
X175135342Y-84558085D01*
X175087723Y-84581895D01*
X174897247Y-84581895D01*
X175659152Y-84343800D02*
X175611533Y-84319990D01*
X175540104Y-84319990D01*
X175468676Y-84343800D01*
X175421057Y-84391419D01*
X175397247Y-84439038D01*
X175373438Y-84534276D01*
X175373438Y-84605704D01*
X175397247Y-84700942D01*
X175421057Y-84748561D01*
X175468676Y-84796180D01*
X175540104Y-84819990D01*
X175587723Y-84819990D01*
X175659152Y-84796180D01*
X175682961Y-84772371D01*
X175682961Y-84605704D01*
X175587723Y-84605704D01*
X175897247Y-84558085D02*
X176063914Y-84558085D01*
X176135342Y-84819990D02*
X175897247Y-84819990D01*
X175897247Y-84319990D01*
X176135342Y-84319990D01*
D10*
X156659600Y-64503942D02*
X156707219Y-64551561D01*
X156659600Y-64599180D01*
X156611980Y-64551561D01*
X156659600Y-64503942D01*
X156659600Y-64599180D01*
X155591238Y-96988380D02*
X155924571Y-97988380D01*
X156257904Y-96988380D01*
X156972190Y-97940761D02*
X156876952Y-97988380D01*
X156686476Y-97988380D01*
X156591238Y-97940761D01*
X156543619Y-97845523D01*
X156543619Y-97464571D01*
X156591238Y-97369333D01*
X156686476Y-97321714D01*
X156876952Y-97321714D01*
X156972190Y-97369333D01*
X157019809Y-97464571D01*
X157019809Y-97559809D01*
X156543619Y-97655047D01*
X157591238Y-97988380D02*
X157496000Y-97940761D01*
X157448380Y-97845523D01*
X157448380Y-96988380D01*
X158257904Y-98369333D02*
X158210285Y-98321714D01*
X158115047Y-98178857D01*
X158067428Y-98083619D01*
X158019809Y-97940761D01*
X157972190Y-97702666D01*
X157972190Y-97512190D01*
X158019809Y-97274095D01*
X158067428Y-97131238D01*
X158115047Y-97036000D01*
X158210285Y-96893142D01*
X158257904Y-96845523D01*
X158638857Y-97988380D02*
X158638857Y-96988380D01*
X159067428Y-97083619D02*
X159115047Y-97036000D01*
X159210285Y-96988380D01*
X159448380Y-96988380D01*
X159543619Y-97036000D01*
X159591238Y-97083619D01*
X159638857Y-97178857D01*
X159638857Y-97274095D01*
X159591238Y-97416952D01*
X159019809Y-97988380D01*
X159638857Y-97988380D01*
X160638857Y-97893142D02*
X160591238Y-97940761D01*
X160448380Y-97988380D01*
X160353142Y-97988380D01*
X160210285Y-97940761D01*
X160115047Y-97845523D01*
X160067428Y-97750285D01*
X160019809Y-97559809D01*
X160019809Y-97416952D01*
X160067428Y-97226476D01*
X160115047Y-97131238D01*
X160210285Y-97036000D01*
X160353142Y-96988380D01*
X160448380Y-96988380D01*
X160591238Y-97036000D01*
X160638857Y-97083619D01*
X160972190Y-98369333D02*
X161019809Y-98321714D01*
X161115047Y-98178857D01*
X161162666Y-98083619D01*
X161210285Y-97940761D01*
X161257904Y-97702666D01*
X161257904Y-97512190D01*
X161210285Y-97274095D01*
X161162666Y-97131238D01*
X161115047Y-97036000D01*
X161019809Y-96893142D01*
X160972190Y-96845523D01*
%TO.C,R5*%
X152741333Y-73986980D02*
X152408000Y-73510790D01*
X152169904Y-73986980D02*
X152169904Y-72986980D01*
X152550857Y-72986980D01*
X152646095Y-73034600D01*
X152693714Y-73082219D01*
X152741333Y-73177457D01*
X152741333Y-73320314D01*
X152693714Y-73415552D01*
X152646095Y-73463171D01*
X152550857Y-73510790D01*
X152169904Y-73510790D01*
X153646095Y-72986980D02*
X153169904Y-72986980D01*
X153122285Y-73463171D01*
X153169904Y-73415552D01*
X153265142Y-73367933D01*
X153503238Y-73367933D01*
X153598476Y-73415552D01*
X153646095Y-73463171D01*
X153693714Y-73558409D01*
X153693714Y-73796504D01*
X153646095Y-73891742D01*
X153598476Y-73939361D01*
X153503238Y-73986980D01*
X153265142Y-73986980D01*
X153169904Y-73939361D01*
X153122285Y-73891742D01*
%TO.C,R1*%
X150123333Y-68652380D02*
X149790000Y-68176190D01*
X149551904Y-68652380D02*
X149551904Y-67652380D01*
X149932857Y-67652380D01*
X150028095Y-67700000D01*
X150075714Y-67747619D01*
X150123333Y-67842857D01*
X150123333Y-67985714D01*
X150075714Y-68080952D01*
X150028095Y-68128571D01*
X149932857Y-68176190D01*
X149551904Y-68176190D01*
X151075714Y-68652380D02*
X150504285Y-68652380D01*
X150790000Y-68652380D02*
X150790000Y-67652380D01*
X150694761Y-67795238D01*
X150599523Y-67890476D01*
X150504285Y-67938095D01*
%TO.C,R11*%
X160139142Y-65730380D02*
X159805809Y-65254190D01*
X159567714Y-65730380D02*
X159567714Y-64730380D01*
X159948666Y-64730380D01*
X160043904Y-64778000D01*
X160091523Y-64825619D01*
X160139142Y-64920857D01*
X160139142Y-65063714D01*
X160091523Y-65158952D01*
X160043904Y-65206571D01*
X159948666Y-65254190D01*
X159567714Y-65254190D01*
X161091523Y-65730380D02*
X160520095Y-65730380D01*
X160805809Y-65730380D02*
X160805809Y-64730380D01*
X160710571Y-64873238D01*
X160615333Y-64968476D01*
X160520095Y-65016095D01*
X162043904Y-65730380D02*
X161472476Y-65730380D01*
X161758190Y-65730380D02*
X161758190Y-64730380D01*
X161662952Y-64873238D01*
X161567714Y-64968476D01*
X161472476Y-65016095D01*
%TO.C,J1*%
X157432380Y-107013333D02*
X158146666Y-107013333D01*
X158289523Y-107060952D01*
X158384761Y-107156190D01*
X158432380Y-107299047D01*
X158432380Y-107394285D01*
X158432380Y-106013333D02*
X158432380Y-106584761D01*
X158432380Y-106299047D02*
X157432380Y-106299047D01*
X157575238Y-106394285D01*
X157670476Y-106489523D01*
X157718095Y-106584761D01*
%TO.C,C5*%
X163376333Y-79820142D02*
X163328714Y-79867761D01*
X163185857Y-79915380D01*
X163090619Y-79915380D01*
X162947761Y-79867761D01*
X162852523Y-79772523D01*
X162804904Y-79677285D01*
X162757285Y-79486809D01*
X162757285Y-79343952D01*
X162804904Y-79153476D01*
X162852523Y-79058238D01*
X162947761Y-78963000D01*
X163090619Y-78915380D01*
X163185857Y-78915380D01*
X163328714Y-78963000D01*
X163376333Y-79010619D01*
X164281095Y-78915380D02*
X163804904Y-78915380D01*
X163757285Y-79391571D01*
X163804904Y-79343952D01*
X163900142Y-79296333D01*
X164138238Y-79296333D01*
X164233476Y-79343952D01*
X164281095Y-79391571D01*
X164328714Y-79486809D01*
X164328714Y-79724904D01*
X164281095Y-79820142D01*
X164233476Y-79867761D01*
X164138238Y-79915380D01*
X163900142Y-79915380D01*
X163804904Y-79867761D01*
X163757285Y-79820142D01*
%TO.C,R3*%
X152562380Y-63196666D02*
X152086190Y-63530000D01*
X152562380Y-63768095D02*
X151562380Y-63768095D01*
X151562380Y-63387142D01*
X151610000Y-63291904D01*
X151657619Y-63244285D01*
X151752857Y-63196666D01*
X151895714Y-63196666D01*
X151990952Y-63244285D01*
X152038571Y-63291904D01*
X152086190Y-63387142D01*
X152086190Y-63768095D01*
X151562380Y-62863333D02*
X151562380Y-62244285D01*
X151943333Y-62577619D01*
X151943333Y-62434761D01*
X151990952Y-62339523D01*
X152038571Y-62291904D01*
X152133809Y-62244285D01*
X152371904Y-62244285D01*
X152467142Y-62291904D01*
X152514761Y-62339523D01*
X152562380Y-62434761D01*
X152562380Y-62720476D01*
X152514761Y-62815714D01*
X152467142Y-62863333D01*
%TO.C,*%
%TO.C,REF\u002A\u002A*%
X115506666Y-41972380D02*
X115173333Y-41496190D01*
X114935238Y-41972380D02*
X114935238Y-40972380D01*
X115316190Y-40972380D01*
X115411428Y-41020000D01*
X115459047Y-41067619D01*
X115506666Y-41162857D01*
X115506666Y-41305714D01*
X115459047Y-41400952D01*
X115411428Y-41448571D01*
X115316190Y-41496190D01*
X114935238Y-41496190D01*
X115935238Y-41448571D02*
X116268571Y-41448571D01*
X116411428Y-41972380D02*
X115935238Y-41972380D01*
X115935238Y-40972380D01*
X116411428Y-40972380D01*
X117173333Y-41448571D02*
X116840000Y-41448571D01*
X116840000Y-41972380D02*
X116840000Y-40972380D01*
X117316190Y-40972380D01*
X117840000Y-40972380D02*
X117840000Y-41210476D01*
X117601904Y-41115238D02*
X117840000Y-41210476D01*
X118078095Y-41115238D01*
X117697142Y-41400952D02*
X117840000Y-41210476D01*
X117982857Y-41400952D01*
X118601904Y-40972380D02*
X118601904Y-41210476D01*
X118363809Y-41115238D02*
X118601904Y-41210476D01*
X118840000Y-41115238D01*
X118459047Y-41400952D02*
X118601904Y-41210476D01*
X118744761Y-41400952D01*
%TO.C,JP1*%
X160472000Y-87116180D02*
X160472000Y-87830466D01*
X160424381Y-87973323D01*
X160329143Y-88068561D01*
X160186286Y-88116180D01*
X160091048Y-88116180D01*
X160948191Y-88116180D02*
X160948191Y-87116180D01*
X161329143Y-87116180D01*
X161424381Y-87163800D01*
X161472000Y-87211419D01*
X161519619Y-87306657D01*
X161519619Y-87449514D01*
X161472000Y-87544752D01*
X161424381Y-87592371D01*
X161329143Y-87639990D01*
X160948191Y-87639990D01*
X162472000Y-88116180D02*
X161900572Y-88116180D01*
X162186286Y-88116180D02*
X162186286Y-87116180D01*
X162091048Y-87259038D01*
X161995810Y-87354276D01*
X161900572Y-87401895D01*
X164191048Y-86316180D02*
X163619619Y-86316180D01*
X163905334Y-86316180D02*
X163905334Y-85316180D01*
X163810095Y-85459038D01*
X163714857Y-85554276D01*
X163619619Y-85601895D01*
X158372000Y-85316180D02*
X158991048Y-85316180D01*
X158657714Y-85697133D01*
X158800572Y-85697133D01*
X158895810Y-85744752D01*
X158943429Y-85792371D01*
X158991048Y-85887609D01*
X158991048Y-86125704D01*
X158943429Y-86220942D01*
X158895810Y-86268561D01*
X158800572Y-86316180D01*
X158514857Y-86316180D01*
X158419619Y-86268561D01*
X158372000Y-86220942D01*
%TO.C,R6*%
X152995333Y-76628580D02*
X152662000Y-76152390D01*
X152423904Y-76628580D02*
X152423904Y-75628580D01*
X152804857Y-75628580D01*
X152900095Y-75676200D01*
X152947714Y-75723819D01*
X152995333Y-75819057D01*
X152995333Y-75961914D01*
X152947714Y-76057152D01*
X152900095Y-76104771D01*
X152804857Y-76152390D01*
X152423904Y-76152390D01*
X153852476Y-75628580D02*
X153662000Y-75628580D01*
X153566761Y-75676200D01*
X153519142Y-75723819D01*
X153423904Y-75866676D01*
X153376285Y-76057152D01*
X153376285Y-76438104D01*
X153423904Y-76533342D01*
X153471523Y-76580961D01*
X153566761Y-76628580D01*
X153757238Y-76628580D01*
X153852476Y-76580961D01*
X153900095Y-76533342D01*
X153947714Y-76438104D01*
X153947714Y-76200009D01*
X153900095Y-76104771D01*
X153852476Y-76057152D01*
X153757238Y-76009533D01*
X153566761Y-76009533D01*
X153471523Y-76057152D01*
X153423904Y-76104771D01*
X153376285Y-76200009D01*
%TO.C,REF\u002A\u002A*%
X115506666Y-114108380D02*
X115173333Y-113632190D01*
X114935238Y-114108380D02*
X114935238Y-113108380D01*
X115316190Y-113108380D01*
X115411428Y-113156000D01*
X115459047Y-113203619D01*
X115506666Y-113298857D01*
X115506666Y-113441714D01*
X115459047Y-113536952D01*
X115411428Y-113584571D01*
X115316190Y-113632190D01*
X114935238Y-113632190D01*
X115935238Y-113584571D02*
X116268571Y-113584571D01*
X116411428Y-114108380D02*
X115935238Y-114108380D01*
X115935238Y-113108380D01*
X116411428Y-113108380D01*
X117173333Y-113584571D02*
X116840000Y-113584571D01*
X116840000Y-114108380D02*
X116840000Y-113108380D01*
X117316190Y-113108380D01*
X117840000Y-113108380D02*
X117840000Y-113346476D01*
X117601904Y-113251238D02*
X117840000Y-113346476D01*
X118078095Y-113251238D01*
X117697142Y-113536952D02*
X117840000Y-113346476D01*
X117982857Y-113536952D01*
X118601904Y-113108380D02*
X118601904Y-113346476D01*
X118363809Y-113251238D02*
X118601904Y-113346476D01*
X118840000Y-113251238D01*
X118459047Y-113536952D02*
X118601904Y-113346476D01*
X118744761Y-113536952D01*
%TO.C,C6*%
X164900333Y-95568142D02*
X164852714Y-95615761D01*
X164709857Y-95663380D01*
X164614619Y-95663380D01*
X164471761Y-95615761D01*
X164376523Y-95520523D01*
X164328904Y-95425285D01*
X164281285Y-95234809D01*
X164281285Y-95091952D01*
X164328904Y-94901476D01*
X164376523Y-94806238D01*
X164471761Y-94711000D01*
X164614619Y-94663380D01*
X164709857Y-94663380D01*
X164852714Y-94711000D01*
X164900333Y-94758619D01*
X165757476Y-94663380D02*
X165567000Y-94663380D01*
X165471761Y-94711000D01*
X165424142Y-94758619D01*
X165328904Y-94901476D01*
X165281285Y-95091952D01*
X165281285Y-95472904D01*
X165328904Y-95568142D01*
X165376523Y-95615761D01*
X165471761Y-95663380D01*
X165662238Y-95663380D01*
X165757476Y-95615761D01*
X165805095Y-95568142D01*
X165852714Y-95472904D01*
X165852714Y-95234809D01*
X165805095Y-95139571D01*
X165757476Y-95091952D01*
X165662238Y-95044333D01*
X165471761Y-95044333D01*
X165376523Y-95091952D01*
X165328904Y-95139571D01*
X165281285Y-95234809D01*
%TO.C,JP4*%
X143935857Y-76272980D02*
X143364428Y-76272980D01*
X143650142Y-76272980D02*
X143650142Y-75272980D01*
X143554904Y-75415838D01*
X143459666Y-75511076D01*
X143364428Y-75558695D01*
X144364428Y-76177742D02*
X144412047Y-76225361D01*
X144364428Y-76272980D01*
X144316809Y-76225361D01*
X144364428Y-76177742D01*
X144364428Y-76272980D01*
X145031095Y-75272980D02*
X145126333Y-75272980D01*
X145221571Y-75320600D01*
X145269190Y-75368219D01*
X145316809Y-75463457D01*
X145364428Y-75653933D01*
X145364428Y-75892028D01*
X145316809Y-76082504D01*
X145269190Y-76177742D01*
X145221571Y-76225361D01*
X145126333Y-76272980D01*
X145031095Y-76272980D01*
X144935857Y-76225361D01*
X144888238Y-76177742D01*
X144840619Y-76082504D01*
X144793000Y-75892028D01*
X144793000Y-75653933D01*
X144840619Y-75463457D01*
X144888238Y-75368219D01*
X144935857Y-75320600D01*
X145031095Y-75272980D01*
X145745380Y-75987266D02*
X146221571Y-75987266D01*
X145650142Y-76272980D02*
X145983476Y-75272980D01*
X146316809Y-76272980D01*
%TO.C,REF\u002A\u002A*%
X173926666Y-41972380D02*
X173593333Y-41496190D01*
X173355238Y-41972380D02*
X173355238Y-40972380D01*
X173736190Y-40972380D01*
X173831428Y-41020000D01*
X173879047Y-41067619D01*
X173926666Y-41162857D01*
X173926666Y-41305714D01*
X173879047Y-41400952D01*
X173831428Y-41448571D01*
X173736190Y-41496190D01*
X173355238Y-41496190D01*
X174355238Y-41448571D02*
X174688571Y-41448571D01*
X174831428Y-41972380D02*
X174355238Y-41972380D01*
X174355238Y-40972380D01*
X174831428Y-40972380D01*
X175593333Y-41448571D02*
X175260000Y-41448571D01*
X175260000Y-41972380D02*
X175260000Y-40972380D01*
X175736190Y-40972380D01*
X176260000Y-40972380D02*
X176260000Y-41210476D01*
X176021904Y-41115238D02*
X176260000Y-41210476D01*
X176498095Y-41115238D01*
X176117142Y-41400952D02*
X176260000Y-41210476D01*
X176402857Y-41400952D01*
X177021904Y-40972380D02*
X177021904Y-41210476D01*
X176783809Y-41115238D02*
X177021904Y-41210476D01*
X177260000Y-41115238D01*
X176879047Y-41400952D02*
X177021904Y-41210476D01*
X177164761Y-41400952D01*
D12*
%TO.C,SYSOUT0*%
X168148290Y-87954761D02*
X168291147Y-88002380D01*
X168529243Y-88002380D01*
X168624481Y-87954761D01*
X168672100Y-87907142D01*
X168719719Y-87811904D01*
X168719719Y-87716666D01*
X168672100Y-87621428D01*
X168624481Y-87573809D01*
X168529243Y-87526190D01*
X168338767Y-87478571D01*
X168243528Y-87430952D01*
X168195909Y-87383333D01*
X168148290Y-87288095D01*
X168148290Y-87192857D01*
X168195909Y-87097619D01*
X168243528Y-87050000D01*
X168338767Y-87002380D01*
X168576862Y-87002380D01*
X168719719Y-87050000D01*
X169338767Y-87526190D02*
X169338767Y-88002380D01*
X169005433Y-87002380D02*
X169338767Y-87526190D01*
X169672100Y-87002380D01*
X169957814Y-87954761D02*
X170100671Y-88002380D01*
X170338767Y-88002380D01*
X170434005Y-87954761D01*
X170481624Y-87907142D01*
X170529243Y-87811904D01*
X170529243Y-87716666D01*
X170481624Y-87621428D01*
X170434005Y-87573809D01*
X170338767Y-87526190D01*
X170148290Y-87478571D01*
X170053052Y-87430952D01*
X170005433Y-87383333D01*
X169957814Y-87288095D01*
X169957814Y-87192857D01*
X170005433Y-87097619D01*
X170053052Y-87050000D01*
X170148290Y-87002380D01*
X170386386Y-87002380D01*
X170529243Y-87050000D01*
X171148290Y-87002380D02*
X171338767Y-87002380D01*
X171434005Y-87050000D01*
X171529243Y-87145238D01*
X171576862Y-87335714D01*
X171576862Y-87669047D01*
X171529243Y-87859523D01*
X171434005Y-87954761D01*
X171338767Y-88002380D01*
X171148290Y-88002380D01*
X171053052Y-87954761D01*
X170957814Y-87859523D01*
X170910195Y-87669047D01*
X170910195Y-87335714D01*
X170957814Y-87145238D01*
X171053052Y-87050000D01*
X171148290Y-87002380D01*
X172005433Y-87002380D02*
X172005433Y-87811904D01*
X172053052Y-87907142D01*
X172100671Y-87954761D01*
X172195909Y-88002380D01*
X172386386Y-88002380D01*
X172481624Y-87954761D01*
X172529243Y-87907142D01*
X172576862Y-87811904D01*
X172576862Y-87002380D01*
X172910195Y-87002380D02*
X173481624Y-87002380D01*
X173195909Y-88002380D02*
X173195909Y-87002380D01*
X174005433Y-87002380D02*
X174100671Y-87002380D01*
X174195909Y-87050000D01*
X174243528Y-87097619D01*
X174291147Y-87192857D01*
X174338767Y-87383333D01*
X174338767Y-87621428D01*
X174291147Y-87811904D01*
X174243528Y-87907142D01*
X174195909Y-87954761D01*
X174100671Y-88002380D01*
X174005433Y-88002380D01*
X173910195Y-87954761D01*
X173862576Y-87907142D01*
X173814957Y-87811904D01*
X173767338Y-87621428D01*
X173767338Y-87383333D01*
X173814957Y-87192857D01*
X173862576Y-87097619D01*
X173910195Y-87050000D01*
X174005433Y-87002380D01*
D13*
X167879352Y-94192426D02*
X167879352Y-93238740D01*
X168356194Y-93715583D02*
X167402509Y-93715583D01*
X167879352Y-88477426D02*
X167879352Y-87523740D01*
D10*
%TO.C,D2*%
X171601704Y-86366980D02*
X171601704Y-85366980D01*
X171839800Y-85366980D01*
X171982657Y-85414600D01*
X172077895Y-85509838D01*
X172125514Y-85605076D01*
X172173133Y-85795552D01*
X172173133Y-85938409D01*
X172125514Y-86128885D01*
X172077895Y-86224123D01*
X171982657Y-86319361D01*
X171839800Y-86366980D01*
X171601704Y-86366980D01*
X172554085Y-85462219D02*
X172601704Y-85414600D01*
X172696942Y-85366980D01*
X172935038Y-85366980D01*
X173030276Y-85414600D01*
X173077895Y-85462219D01*
X173125514Y-85557457D01*
X173125514Y-85652695D01*
X173077895Y-85795552D01*
X172506466Y-86366980D01*
X173125514Y-86366980D01*
%TO.C,D1*%
X160436622Y-68092805D02*
X160436622Y-67305403D01*
X160624099Y-67305403D01*
X160736585Y-67342899D01*
X160811575Y-67417889D01*
X160849071Y-67492880D01*
X160886566Y-67642861D01*
X160886566Y-67755347D01*
X160849071Y-67905329D01*
X160811575Y-67980319D01*
X160736585Y-68055310D01*
X160624099Y-68092805D01*
X160436622Y-68092805D01*
X161636473Y-68092805D02*
X161186529Y-68092805D01*
X161411501Y-68092805D02*
X161411501Y-67305403D01*
X161336510Y-67417889D01*
X161261519Y-67492880D01*
X161186529Y-67530375D01*
%TO.C,C4*%
X160226733Y-95517342D02*
X160179114Y-95564961D01*
X160036257Y-95612580D01*
X159941019Y-95612580D01*
X159798161Y-95564961D01*
X159702923Y-95469723D01*
X159655304Y-95374485D01*
X159607685Y-95184009D01*
X159607685Y-95041152D01*
X159655304Y-94850676D01*
X159702923Y-94755438D01*
X159798161Y-94660200D01*
X159941019Y-94612580D01*
X160036257Y-94612580D01*
X160179114Y-94660200D01*
X160226733Y-94707819D01*
X161083876Y-94945914D02*
X161083876Y-95612580D01*
X160845780Y-94564961D02*
X160607685Y-95279247D01*
X161226733Y-95279247D01*
%TO.C,R7*%
X168176933Y-70093180D02*
X167843600Y-69616990D01*
X167605504Y-70093180D02*
X167605504Y-69093180D01*
X167986457Y-69093180D01*
X168081695Y-69140800D01*
X168129314Y-69188419D01*
X168176933Y-69283657D01*
X168176933Y-69426514D01*
X168129314Y-69521752D01*
X168081695Y-69569371D01*
X167986457Y-69616990D01*
X167605504Y-69616990D01*
X168510266Y-69093180D02*
X169176933Y-69093180D01*
X168748361Y-70093180D01*
%TO.C,*%
%TO.C,C2*%
X163249333Y-73647942D02*
X163201714Y-73695561D01*
X163058857Y-73743180D01*
X162963619Y-73743180D01*
X162820761Y-73695561D01*
X162725523Y-73600323D01*
X162677904Y-73505085D01*
X162630285Y-73314609D01*
X162630285Y-73171752D01*
X162677904Y-72981276D01*
X162725523Y-72886038D01*
X162820761Y-72790800D01*
X162963619Y-72743180D01*
X163058857Y-72743180D01*
X163201714Y-72790800D01*
X163249333Y-72838419D01*
X163630285Y-72838419D02*
X163677904Y-72790800D01*
X163773142Y-72743180D01*
X164011238Y-72743180D01*
X164106476Y-72790800D01*
X164154095Y-72838419D01*
X164201714Y-72933657D01*
X164201714Y-73028895D01*
X164154095Y-73171752D01*
X163582666Y-73743180D01*
X164201714Y-73743180D01*
%TO.C,*%
%TO.C,D4*%
X161463222Y-58254605D02*
X161463222Y-57467203D01*
X161650699Y-57467203D01*
X161763185Y-57504699D01*
X161838175Y-57579689D01*
X161875671Y-57654680D01*
X161913166Y-57804661D01*
X161913166Y-57917147D01*
X161875671Y-58067129D01*
X161838175Y-58142119D01*
X161763185Y-58217110D01*
X161650699Y-58254605D01*
X161463222Y-58254605D01*
X162588082Y-57729671D02*
X162588082Y-58254605D01*
X162400605Y-57429708D02*
X162213129Y-57992138D01*
X162700568Y-57992138D01*
%TO.C,JP5*%
X143500923Y-78066980D02*
X143596161Y-78066980D01*
X143691400Y-78114600D01*
X143739019Y-78162219D01*
X143786638Y-78257457D01*
X143834257Y-78447933D01*
X143834257Y-78686028D01*
X143786638Y-78876504D01*
X143739019Y-78971742D01*
X143691400Y-79019361D01*
X143596161Y-79066980D01*
X143500923Y-79066980D01*
X143405685Y-79019361D01*
X143358066Y-78971742D01*
X143310447Y-78876504D01*
X143262828Y-78686028D01*
X143262828Y-78447933D01*
X143310447Y-78257457D01*
X143358066Y-78162219D01*
X143405685Y-78114600D01*
X143500923Y-78066980D01*
X144262828Y-78971742D02*
X144310447Y-79019361D01*
X144262828Y-79066980D01*
X144215209Y-79019361D01*
X144262828Y-78971742D01*
X144262828Y-79066980D01*
X145215209Y-78066980D02*
X144739019Y-78066980D01*
X144691400Y-78543171D01*
X144739019Y-78495552D01*
X144834257Y-78447933D01*
X145072352Y-78447933D01*
X145167590Y-78495552D01*
X145215209Y-78543171D01*
X145262828Y-78638409D01*
X145262828Y-78876504D01*
X145215209Y-78971742D01*
X145167590Y-79019361D01*
X145072352Y-79066980D01*
X144834257Y-79066980D01*
X144739019Y-79019361D01*
X144691400Y-78971742D01*
X145643780Y-78781266D02*
X146119971Y-78781266D01*
X145548542Y-79066980D02*
X145881876Y-78066980D01*
X146215209Y-79066980D01*
%TO.C,R10*%
X155313142Y-60650380D02*
X154979809Y-60174190D01*
X154741714Y-60650380D02*
X154741714Y-59650380D01*
X155122666Y-59650380D01*
X155217904Y-59698000D01*
X155265523Y-59745619D01*
X155313142Y-59840857D01*
X155313142Y-59983714D01*
X155265523Y-60078952D01*
X155217904Y-60126571D01*
X155122666Y-60174190D01*
X154741714Y-60174190D01*
X156265523Y-60650380D02*
X155694095Y-60650380D01*
X155979809Y-60650380D02*
X155979809Y-59650380D01*
X155884571Y-59793238D01*
X155789333Y-59888476D01*
X155694095Y-59936095D01*
X156884571Y-59650380D02*
X156979809Y-59650380D01*
X157075047Y-59698000D01*
X157122666Y-59745619D01*
X157170285Y-59840857D01*
X157217904Y-60031333D01*
X157217904Y-60269428D01*
X157170285Y-60459904D01*
X157122666Y-60555142D01*
X157075047Y-60602761D01*
X156979809Y-60650380D01*
X156884571Y-60650380D01*
X156789333Y-60602761D01*
X156741714Y-60555142D01*
X156694095Y-60459904D01*
X156646476Y-60269428D01*
X156646476Y-60031333D01*
X156694095Y-59840857D01*
X156741714Y-59745619D01*
X156789333Y-59698000D01*
X156884571Y-59650380D01*
%TO.C,R4*%
X166856133Y-63444380D02*
X166522800Y-62968190D01*
X166284704Y-63444380D02*
X166284704Y-62444380D01*
X166665657Y-62444380D01*
X166760895Y-62492000D01*
X166808514Y-62539619D01*
X166856133Y-62634857D01*
X166856133Y-62777714D01*
X166808514Y-62872952D01*
X166760895Y-62920571D01*
X166665657Y-62968190D01*
X166284704Y-62968190D01*
X167713276Y-62777714D02*
X167713276Y-63444380D01*
X167475180Y-62396761D02*
X167237085Y-63111047D01*
X167856133Y-63111047D01*
D14*
%TO.C,J2*%
X166563916Y-51464116D02*
X166563916Y-52104138D01*
X166521248Y-52232142D01*
X166435912Y-52317479D01*
X166307907Y-52360147D01*
X166222571Y-52360147D01*
X166947929Y-51549452D02*
X166990598Y-51506784D01*
X167075934Y-51464116D01*
X167289275Y-51464116D01*
X167374611Y-51506784D01*
X167417279Y-51549452D01*
X167459947Y-51634788D01*
X167459947Y-51720125D01*
X167417279Y-51848129D01*
X166905261Y-52360147D01*
X167459947Y-52360147D01*
D13*
X174446552Y-58981659D02*
X174446552Y-58027973D01*
X174923394Y-58504816D02*
X173969709Y-58504816D01*
D12*
%TO.C,BATT0*%
X167697338Y-81818571D02*
X167840195Y-81866190D01*
X167887814Y-81913809D01*
X167935433Y-82009047D01*
X167935433Y-82151904D01*
X167887814Y-82247142D01*
X167840195Y-82294761D01*
X167744957Y-82342380D01*
X167364005Y-82342380D01*
X167364005Y-81342380D01*
X167697338Y-81342380D01*
X167792576Y-81390000D01*
X167840195Y-81437619D01*
X167887814Y-81532857D01*
X167887814Y-81628095D01*
X167840195Y-81723333D01*
X167792576Y-81770952D01*
X167697338Y-81818571D01*
X167364005Y-81818571D01*
X168316386Y-82056666D02*
X168792576Y-82056666D01*
X168221147Y-82342380D02*
X168554481Y-81342380D01*
X168887814Y-82342380D01*
X169078290Y-81342380D02*
X169649719Y-81342380D01*
X169364005Y-82342380D02*
X169364005Y-81342380D01*
X169840195Y-81342380D02*
X170411624Y-81342380D01*
X170125909Y-82342380D02*
X170125909Y-81342380D01*
X170935433Y-81342380D02*
X171030671Y-81342380D01*
X171125909Y-81390000D01*
X171173528Y-81437619D01*
X171221147Y-81532857D01*
X171268767Y-81723333D01*
X171268767Y-81961428D01*
X171221147Y-82151904D01*
X171173528Y-82247142D01*
X171125909Y-82294761D01*
X171030671Y-82342380D01*
X170935433Y-82342380D01*
X170840195Y-82294761D01*
X170792576Y-82247142D01*
X170744957Y-82151904D01*
X170697338Y-81961428D01*
X170697338Y-81723333D01*
X170744957Y-81532857D01*
X170792576Y-81437619D01*
X170840195Y-81390000D01*
X170935433Y-81342380D01*
D13*
X167708552Y-79028626D02*
X167708552Y-78074940D01*
X168185394Y-78551783D02*
X167231709Y-78551783D01*
X167708552Y-73313626D02*
X167708552Y-72359940D01*
D10*
%TO.C,JP2*%
X160427925Y-80510232D02*
X160427925Y-81224518D01*
X160380306Y-81367375D01*
X160285068Y-81462613D01*
X160142211Y-81510232D01*
X160046973Y-81510232D01*
X160904116Y-81510232D02*
X160904116Y-80510232D01*
X161285068Y-80510232D01*
X161380306Y-80557852D01*
X161427925Y-80605471D01*
X161475544Y-80700709D01*
X161475544Y-80843566D01*
X161427925Y-80938804D01*
X161380306Y-80986423D01*
X161285068Y-81034042D01*
X160904116Y-81034042D01*
X161856497Y-80605471D02*
X161904116Y-80557852D01*
X161999354Y-80510232D01*
X162237449Y-80510232D01*
X162332687Y-80557852D01*
X162380306Y-80605471D01*
X162427925Y-80700709D01*
X162427925Y-80795947D01*
X162380306Y-80938804D01*
X161808878Y-81510232D01*
X162427925Y-81510232D01*
%TO.C,R9*%
X144359333Y-68524380D02*
X144026000Y-68048190D01*
X143787904Y-68524380D02*
X143787904Y-67524380D01*
X144168857Y-67524380D01*
X144264095Y-67572000D01*
X144311714Y-67619619D01*
X144359333Y-67714857D01*
X144359333Y-67857714D01*
X144311714Y-67952952D01*
X144264095Y-68000571D01*
X144168857Y-68048190D01*
X143787904Y-68048190D01*
X144835523Y-68524380D02*
X145026000Y-68524380D01*
X145121238Y-68476761D01*
X145168857Y-68429142D01*
X145264095Y-68286285D01*
X145311714Y-68095809D01*
X145311714Y-67714857D01*
X145264095Y-67619619D01*
X145216476Y-67572000D01*
X145121238Y-67524380D01*
X144930761Y-67524380D01*
X144835523Y-67572000D01*
X144787904Y-67619619D01*
X144740285Y-67714857D01*
X144740285Y-67952952D01*
X144787904Y-68048190D01*
X144835523Y-68095809D01*
X144930761Y-68143428D01*
X145121238Y-68143428D01*
X145216476Y-68095809D01*
X145264095Y-68048190D01*
X145311714Y-67952952D01*
%TO.C,*%
%TO.C,JP6*%
X141570666Y-70167580D02*
X142142095Y-70167580D01*
X141856380Y-71167580D02*
X141856380Y-70167580D01*
X142475428Y-71167580D02*
X142475428Y-70167580D01*
X142475428Y-70643771D02*
X143046857Y-70643771D01*
X143046857Y-71167580D02*
X143046857Y-70167580D01*
X143523047Y-70643771D02*
X143856380Y-70643771D01*
X143999238Y-71167580D02*
X143523047Y-71167580D01*
X143523047Y-70167580D01*
X143999238Y-70167580D01*
X144999238Y-71167580D02*
X144665904Y-70691390D01*
X144427809Y-71167580D02*
X144427809Y-70167580D01*
X144808761Y-70167580D01*
X144904000Y-70215200D01*
X144951619Y-70262819D01*
X144999238Y-70358057D01*
X144999238Y-70500914D01*
X144951619Y-70596152D01*
X144904000Y-70643771D01*
X144808761Y-70691390D01*
X144427809Y-70691390D01*
X145427809Y-71167580D02*
X145427809Y-70167580D01*
X145761142Y-70881866D01*
X146094476Y-70167580D01*
X146094476Y-71167580D01*
%TO.C,XA1*%
X142973619Y-52842904D02*
X141973619Y-53509571D01*
X142973619Y-53509571D02*
X141973619Y-52842904D01*
X142259333Y-53842904D02*
X142259333Y-54319095D01*
X141973619Y-53747666D02*
X142973619Y-54081000D01*
X141973619Y-54414333D01*
X141973619Y-55271476D02*
X141973619Y-54700047D01*
X141973619Y-54985761D02*
X142973619Y-54985761D01*
X142830761Y-54890523D01*
X142735523Y-54795285D01*
X142687904Y-54700047D01*
D15*
X120344809Y-89916752D02*
X120844809Y-89916752D01*
X120844809Y-90035800D01*
X120821000Y-90107228D01*
X120773380Y-90154847D01*
X120725761Y-90178657D01*
X120630523Y-90202466D01*
X120559095Y-90202466D01*
X120463857Y-90178657D01*
X120416238Y-90154847D01*
X120368619Y-90107228D01*
X120344809Y-90035800D01*
X120344809Y-89916752D01*
X120844809Y-90511990D02*
X120844809Y-90559609D01*
X120821000Y-90607228D01*
X120797190Y-90631038D01*
X120749571Y-90654847D01*
X120654333Y-90678657D01*
X120535285Y-90678657D01*
X120440047Y-90654847D01*
X120392428Y-90631038D01*
X120368619Y-90607228D01*
X120344809Y-90559609D01*
X120344809Y-90511990D01*
X120368619Y-90464371D01*
X120392428Y-90440561D01*
X120440047Y-90416752D01*
X120535285Y-90392942D01*
X120654333Y-90392942D01*
X120749571Y-90416752D01*
X120797190Y-90440561D01*
X120821000Y-90464371D01*
X120844809Y-90511990D01*
D10*
%TO.C,*%
%TO.C,U1*%
X154432095Y-68540380D02*
X154432095Y-69349904D01*
X154479714Y-69445142D01*
X154527333Y-69492761D01*
X154622571Y-69540380D01*
X154813047Y-69540380D01*
X154908285Y-69492761D01*
X154955904Y-69445142D01*
X155003523Y-69349904D01*
X155003523Y-68540380D01*
X156003523Y-69540380D02*
X155432095Y-69540380D01*
X155717809Y-69540380D02*
X155717809Y-68540380D01*
X155622571Y-68683238D01*
X155527333Y-68778476D01*
X155432095Y-68826095D01*
%TO.C,*%
%TO.C,C1*%
X163630333Y-63564142D02*
X163582714Y-63611761D01*
X163439857Y-63659380D01*
X163344619Y-63659380D01*
X163201761Y-63611761D01*
X163106523Y-63516523D01*
X163058904Y-63421285D01*
X163011285Y-63230809D01*
X163011285Y-63087952D01*
X163058904Y-62897476D01*
X163106523Y-62802238D01*
X163201761Y-62707000D01*
X163344619Y-62659380D01*
X163439857Y-62659380D01*
X163582714Y-62707000D01*
X163630333Y-62754619D01*
X164582714Y-63659380D02*
X164011285Y-63659380D01*
X164297000Y-63659380D02*
X164297000Y-62659380D01*
X164201761Y-62802238D01*
X164106523Y-62897476D01*
X164011285Y-62945095D01*
%TO.C,*%
%TO.C,C7*%
X163376333Y-76264142D02*
X163328714Y-76311761D01*
X163185857Y-76359380D01*
X163090619Y-76359380D01*
X162947761Y-76311761D01*
X162852523Y-76216523D01*
X162804904Y-76121285D01*
X162757285Y-75930809D01*
X162757285Y-75787952D01*
X162804904Y-75597476D01*
X162852523Y-75502238D01*
X162947761Y-75407000D01*
X163090619Y-75359380D01*
X163185857Y-75359380D01*
X163328714Y-75407000D01*
X163376333Y-75454619D01*
X163709666Y-75359380D02*
X164376333Y-75359380D01*
X163947761Y-76359380D01*
%TO.C,R2*%
X155281333Y-71318380D02*
X154948000Y-70842190D01*
X154709904Y-71318380D02*
X154709904Y-70318380D01*
X155090857Y-70318380D01*
X155186095Y-70366000D01*
X155233714Y-70413619D01*
X155281333Y-70508857D01*
X155281333Y-70651714D01*
X155233714Y-70746952D01*
X155186095Y-70794571D01*
X155090857Y-70842190D01*
X154709904Y-70842190D01*
X155662285Y-70413619D02*
X155709904Y-70366000D01*
X155805142Y-70318380D01*
X156043238Y-70318380D01*
X156138476Y-70366000D01*
X156186095Y-70413619D01*
X156233714Y-70508857D01*
X156233714Y-70604095D01*
X156186095Y-70746952D01*
X155614666Y-71318380D01*
X156233714Y-71318380D01*
%TO.C,R8*%
X152741333Y-79192380D02*
X152408000Y-78716190D01*
X152169904Y-79192380D02*
X152169904Y-78192380D01*
X152550857Y-78192380D01*
X152646095Y-78240000D01*
X152693714Y-78287619D01*
X152741333Y-78382857D01*
X152741333Y-78525714D01*
X152693714Y-78620952D01*
X152646095Y-78668571D01*
X152550857Y-78716190D01*
X152169904Y-78716190D01*
X153312761Y-78620952D02*
X153217523Y-78573333D01*
X153169904Y-78525714D01*
X153122285Y-78430476D01*
X153122285Y-78382857D01*
X153169904Y-78287619D01*
X153217523Y-78240000D01*
X153312761Y-78192380D01*
X153503238Y-78192380D01*
X153598476Y-78240000D01*
X153646095Y-78287619D01*
X153693714Y-78382857D01*
X153693714Y-78430476D01*
X153646095Y-78525714D01*
X153598476Y-78573333D01*
X153503238Y-78620952D01*
X153312761Y-78620952D01*
X153217523Y-78668571D01*
X153169904Y-78716190D01*
X153122285Y-78811428D01*
X153122285Y-79001904D01*
X153169904Y-79097142D01*
X153217523Y-79144761D01*
X153312761Y-79192380D01*
X153503238Y-79192380D01*
X153598476Y-79144761D01*
X153646095Y-79097142D01*
X153693714Y-79001904D01*
X153693714Y-78811428D01*
X153646095Y-78716190D01*
X153598476Y-78668571D01*
X153503238Y-78620952D01*
%TO.C,JP3*%
X143935857Y-73555180D02*
X143364428Y-73555180D01*
X143650142Y-73555180D02*
X143650142Y-72555180D01*
X143554904Y-72698038D01*
X143459666Y-72793276D01*
X143364428Y-72840895D01*
X144364428Y-73459942D02*
X144412047Y-73507561D01*
X144364428Y-73555180D01*
X144316809Y-73507561D01*
X144364428Y-73459942D01*
X144364428Y-73555180D01*
X145316809Y-72555180D02*
X144840619Y-72555180D01*
X144793000Y-73031371D01*
X144840619Y-72983752D01*
X144935857Y-72936133D01*
X145173952Y-72936133D01*
X145269190Y-72983752D01*
X145316809Y-73031371D01*
X145364428Y-73126609D01*
X145364428Y-73364704D01*
X145316809Y-73459942D01*
X145269190Y-73507561D01*
X145173952Y-73555180D01*
X144935857Y-73555180D01*
X144840619Y-73507561D01*
X144793000Y-73459942D01*
X145745380Y-73269466D02*
X146221571Y-73269466D01*
X145650142Y-73555180D02*
X145983476Y-72555180D01*
X146316809Y-73555180D01*
%TO.C,C3*%
X162360333Y-95568142D02*
X162312714Y-95615761D01*
X162169857Y-95663380D01*
X162074619Y-95663380D01*
X161931761Y-95615761D01*
X161836523Y-95520523D01*
X161788904Y-95425285D01*
X161741285Y-95234809D01*
X161741285Y-95091952D01*
X161788904Y-94901476D01*
X161836523Y-94806238D01*
X161931761Y-94711000D01*
X162074619Y-94663380D01*
X162169857Y-94663380D01*
X162312714Y-94711000D01*
X162360333Y-94758619D01*
X162693666Y-94663380D02*
X163312714Y-94663380D01*
X162979380Y-95044333D01*
X163122238Y-95044333D01*
X163217476Y-95091952D01*
X163265095Y-95139571D01*
X163312714Y-95234809D01*
X163312714Y-95472904D01*
X163265095Y-95568142D01*
X163217476Y-95615761D01*
X163122238Y-95663380D01*
X162836523Y-95663380D01*
X162741285Y-95615761D01*
X162693666Y-95568142D01*
D14*
%TO.C,X1*%
X173928317Y-66383592D02*
X174390205Y-67076423D01*
X174390205Y-66383592D02*
X173928317Y-67076423D01*
X175017052Y-67076423D02*
X174621148Y-67076423D01*
X174819100Y-67076423D02*
X174819100Y-66383592D01*
X174753116Y-66482568D01*
X174687132Y-66548552D01*
X174621148Y-66581544D01*
D10*
%TO.C,D3*%
X171560904Y-83547580D02*
X171560904Y-82547580D01*
X171799000Y-82547580D01*
X171941857Y-82595200D01*
X172037095Y-82690438D01*
X172084714Y-82785676D01*
X172132333Y-82976152D01*
X172132333Y-83119009D01*
X172084714Y-83309485D01*
X172037095Y-83404723D01*
X171941857Y-83499961D01*
X171799000Y-83547580D01*
X171560904Y-83547580D01*
X172465666Y-82547580D02*
X173084714Y-82547580D01*
X172751380Y-82928533D01*
X172894238Y-82928533D01*
X172989476Y-82976152D01*
X173037095Y-83023771D01*
X173084714Y-83119009D01*
X173084714Y-83357104D01*
X173037095Y-83452342D01*
X172989476Y-83499961D01*
X172894238Y-83547580D01*
X172608523Y-83547580D01*
X172513285Y-83499961D01*
X172465666Y-83452342D01*
D16*
%TO.C,R5*%
X150569700Y-73771858D02*
X150569700Y-73297342D01*
X151614700Y-73771858D02*
X151614700Y-73297342D01*
%TO.C,R1*%
X150527258Y-67292500D02*
X150052742Y-67292500D01*
X150527258Y-66247500D02*
X150052742Y-66247500D01*
%TO.C,R11*%
X159152500Y-64477258D02*
X159152500Y-64002742D01*
X158107500Y-64477258D02*
X158107500Y-64002742D01*
%TO.C,J1*%
X153162000Y-115252000D02*
X154162000Y-115252000D01*
X149872000Y-98942000D02*
X166612000Y-98942000D01*
X166612000Y-98942000D02*
X166612000Y-114672000D01*
X154162000Y-115252000D02*
X153662000Y-114752000D01*
X149872000Y-98952000D02*
X149872000Y-114672000D01*
X153662000Y-114752000D02*
X153162000Y-115252000D01*
X149872000Y-114672000D02*
X166612000Y-114672000D01*
%TO.C,C5*%
X166310000Y-79201748D02*
X166310000Y-79724252D01*
X164840000Y-79201748D02*
X164840000Y-79724252D01*
%TO.C,R3*%
X154062500Y-63267258D02*
X154062500Y-62792742D01*
X153017500Y-63267258D02*
X153017500Y-62792742D01*
%TO.C,JP1*%
X159905334Y-84863800D02*
X162705334Y-84863800D01*
X163355334Y-85563800D02*
X163355334Y-86163800D01*
X159255334Y-86163800D02*
X159255334Y-85563800D01*
X162705334Y-86863800D02*
X159905334Y-86863800D01*
X159955334Y-84863800D02*
G75*
G03*
X159255334Y-85563800I0J-700000D01*
G01*
X162655334Y-86863800D02*
G75*
G03*
X163355334Y-86163800I1J699999D01*
G01*
X159255334Y-86163800D02*
G75*
G03*
X159955334Y-86863800I700000J0D01*
G01*
X163355334Y-85563800D02*
G75*
G03*
X162655334Y-84863800I-699999J1D01*
G01*
%TO.C,R6*%
X151614700Y-76413458D02*
X151614700Y-75938942D01*
X150569700Y-76413458D02*
X150569700Y-75938942D01*
%TO.C,C6*%
X165802000Y-92932252D02*
X165802000Y-92409748D01*
X164332000Y-92932252D02*
X164332000Y-92409748D01*
%TO.C,JP4*%
X146796600Y-74871400D02*
X149596600Y-74871400D01*
X146796600Y-76871400D02*
X146796600Y-74871400D01*
X149596600Y-74871400D02*
X149596600Y-76871400D01*
X149596600Y-76871400D02*
X146796600Y-76871400D01*
D17*
%TO.C,SYSOUT0*%
X170011800Y-89165400D02*
X170011800Y-88315400D01*
X170011800Y-96315400D02*
X170011800Y-95465400D01*
X174011800Y-96315400D02*
X170011800Y-96315400D01*
X172511800Y-89165400D02*
X170011800Y-89165400D01*
X170011800Y-95465400D02*
X172511800Y-95465400D01*
X172511800Y-95465400D02*
X172511800Y-94065400D01*
X170011800Y-88315400D02*
X174011800Y-88315400D01*
X177511800Y-90065400D02*
X177511800Y-94565400D01*
X172511800Y-90565400D02*
X172511800Y-89165400D01*
D16*
%TO.C,D2*%
X173404800Y-85128800D02*
X173404800Y-86598800D01*
X173404800Y-86598800D02*
X175689800Y-86598800D01*
X175689800Y-85128800D02*
X173404800Y-85128800D01*
D17*
%TO.C,D1*%
X164107800Y-71446600D02*
X164107800Y-71236600D01*
X159777800Y-68886600D02*
X159777800Y-69096600D01*
X164107800Y-69096600D02*
X164107800Y-68886600D01*
X164107800Y-68886600D02*
X159777800Y-68886600D01*
X159777800Y-71446600D02*
X159777800Y-71236600D01*
X159777800Y-71446600D02*
X164107800Y-71446600D01*
D18*
X158042800Y-70166600D02*
G75*
G03*
X158042800Y-70166600I-100000J0D01*
G01*
D16*
%TO.C,C4*%
X159658400Y-92881452D02*
X159658400Y-92358948D01*
X161128400Y-92881452D02*
X161128400Y-92358948D01*
%TO.C,R7*%
X168580858Y-68733300D02*
X168106342Y-68733300D01*
X168580858Y-67688300D02*
X168106342Y-67688300D01*
%TO.C,C2*%
X160462348Y-73746400D02*
X160984852Y-73746400D01*
X160462348Y-72276400D02*
X160984852Y-72276400D01*
D17*
%TO.C,D4*%
X159854000Y-61439000D02*
X164184000Y-61439000D01*
X159854000Y-61439000D02*
X159854000Y-61229000D01*
X164184000Y-59089000D02*
X164184000Y-58879000D01*
X164184000Y-61439000D02*
X164184000Y-61229000D01*
X164184000Y-58879000D02*
X159854000Y-58879000D01*
X159854000Y-58879000D02*
X159854000Y-59089000D01*
D18*
X158119000Y-60159000D02*
G75*
G03*
X158119000Y-60159000I-100000J0D01*
G01*
D16*
%TO.C,JP5*%
X146796600Y-79563800D02*
X146796600Y-77563800D01*
X146796600Y-77563800D02*
X149596600Y-77563800D01*
X149596600Y-79563800D02*
X146796600Y-79563800D01*
X149596600Y-77563800D02*
X149596600Y-79563800D01*
%TO.C,R10*%
X156297500Y-62222742D02*
X156297500Y-62697258D01*
X157342500Y-62222742D02*
X157342500Y-62697258D01*
%TO.C,R4*%
X167260058Y-63954500D02*
X166785542Y-63954500D01*
X167260058Y-64999500D02*
X166785542Y-64999500D01*
D19*
%TO.C,J2*%
X166745000Y-53333000D02*
X166745000Y-59325000D01*
X171063000Y-59325000D02*
X174157000Y-59325000D01*
X165491000Y-53333000D02*
X166745000Y-53333000D01*
X180745000Y-58325000D02*
X180745000Y-51325000D01*
X179745000Y-50325000D02*
X177429000Y-50325000D01*
X165491000Y-50325000D02*
X165491000Y-53333000D01*
X177413000Y-59325000D02*
X179745000Y-59325000D01*
X166745000Y-59325000D02*
X167807000Y-59325000D01*
X167807000Y-50325000D02*
X165491000Y-50325000D01*
X174157000Y-50325000D02*
X171079000Y-50325000D01*
X180745000Y-51325000D02*
G75*
G03*
X179745000Y-50325000I-999999J1D01*
G01*
X179745000Y-59325000D02*
G75*
G03*
X180745000Y-58325000I1J999999D01*
G01*
D17*
%TO.C,BATT0*%
X173841000Y-81151600D02*
X169841000Y-81151600D01*
X172341000Y-80301600D02*
X172341000Y-78901600D01*
X169841000Y-81151600D02*
X169841000Y-80301600D01*
X169841000Y-74001600D02*
X169841000Y-73151600D01*
X169841000Y-80301600D02*
X172341000Y-80301600D01*
X177341000Y-74901600D02*
X177341000Y-79401600D01*
X172341000Y-75401600D02*
X172341000Y-74001600D01*
X172341000Y-74001600D02*
X169841000Y-74001600D01*
X169841000Y-73151600D02*
X173841000Y-73151600D01*
D16*
%TO.C,JP2*%
X162661259Y-83857852D02*
X159861259Y-83857852D01*
X159861259Y-81857852D02*
X162661259Y-81857852D01*
X160061259Y-84057852D02*
X160361259Y-84357852D01*
X160061259Y-84057852D02*
X159761259Y-84357852D01*
X163311259Y-82557852D02*
X163311259Y-83157852D01*
X159761259Y-84357852D02*
X160361259Y-84357852D01*
X159211259Y-83157852D02*
X159211259Y-82557852D01*
X162611259Y-83857852D02*
G75*
G03*
X163311259Y-83157852I0J700000D01*
G01*
X159211259Y-83157852D02*
G75*
G03*
X159911259Y-83857852I699999J-1D01*
G01*
X159911259Y-81857852D02*
G75*
G03*
X159211259Y-82557852I-1J-699999D01*
G01*
X163311259Y-82557852D02*
G75*
G03*
X162611259Y-81857852I-700000J0D01*
G01*
%TO.C,R9*%
X147371858Y-67459700D02*
X146897342Y-67459700D01*
X147371858Y-68504700D02*
X146897342Y-68504700D01*
%TO.C,JP6*%
X147496600Y-69537400D02*
X148896600Y-69537400D01*
X149596600Y-70237400D02*
X149596600Y-70837400D01*
X148896600Y-71537400D02*
X147496600Y-71537400D01*
X146796600Y-70837400D02*
X146796600Y-70237400D01*
X149596600Y-70237400D02*
G75*
G03*
X148896600Y-69537400I-700000J0D01*
G01*
X146796600Y-70837400D02*
G75*
G03*
X147496600Y-71537400I699999J-1D01*
G01*
X147496600Y-69537400D02*
G75*
G03*
X146796600Y-70237400I-1J-699999D01*
G01*
X148896600Y-71537400D02*
G75*
G03*
X149596600Y-70837400I0J700000D01*
G01*
D10*
%TO.C,XA1*%
X116326000Y-50081000D02*
X116326000Y-112927000D01*
X141326000Y-50081000D02*
X141326000Y-112927000D01*
X118576000Y-115431000D02*
X139076000Y-115431000D01*
X118576000Y-47831000D02*
X139076000Y-47831000D01*
X139076000Y-115431000D02*
G75*
G03*
X141326000Y-112927000I-127000J2377000D01*
G01*
X116326000Y-112927000D02*
G75*
G03*
X118576000Y-115431000I2377000J-127000D01*
G01*
X141326000Y-50081000D02*
G75*
G03*
X139076000Y-47831000I-2250000J0D01*
G01*
X118576000Y-47831000D02*
G75*
G03*
X116326000Y-50081000I0J-2250000D01*
G01*
D16*
%TO.C,U1*%
X153474800Y-67593200D02*
X153474800Y-68068200D01*
X156694800Y-64848200D02*
X156219800Y-64848200D01*
X156694800Y-67593200D02*
X156694800Y-68068200D01*
X156694800Y-68068200D02*
X156219800Y-68068200D01*
X153474800Y-65323200D02*
X153474800Y-64848200D01*
X153474800Y-64848200D02*
X153949800Y-64848200D01*
X156694800Y-65323200D02*
X156694800Y-64848200D01*
%TO.C,C1*%
X160563948Y-62446600D02*
X161086452Y-62446600D01*
X160563948Y-63916600D02*
X161086452Y-63916600D01*
%TO.C,C7*%
X166310000Y-76168252D02*
X166310000Y-75645748D01*
X164840000Y-76168252D02*
X164840000Y-75645748D01*
%TO.C,R2*%
X156518100Y-69878542D02*
X156518100Y-70353058D01*
X157563100Y-69878542D02*
X157563100Y-70353058D01*
%TO.C,R8*%
X150567500Y-78502742D02*
X150567500Y-78977258D01*
X151612500Y-78502742D02*
X151612500Y-78977258D01*
%TO.C,JP3*%
X146796600Y-72204400D02*
X149596600Y-72204400D01*
X146796600Y-74204400D02*
X146796600Y-72204400D01*
X149596600Y-74204400D02*
X146796600Y-74204400D01*
X149596600Y-72204400D02*
X149596600Y-74204400D01*
%TO.C,C3*%
X163262000Y-92932252D02*
X163262000Y-92409748D01*
X161792000Y-92932252D02*
X161792000Y-92409748D01*
D20*
%TO.C,X1*%
X174539000Y-71233000D02*
X173189000Y-71233000D01*
X173189000Y-62293000D02*
X174539000Y-62293000D01*
X178539000Y-62293000D02*
X178539000Y-71233000D01*
X177189000Y-62293000D02*
X178539000Y-62293000D01*
X178539000Y-71233000D02*
X177189000Y-71233000D01*
D16*
%TO.C,D3*%
X173364000Y-82385600D02*
X173364000Y-83855600D01*
X175649000Y-82385600D02*
X173364000Y-82385600D01*
X173364000Y-83855600D02*
X175649000Y-83855600D01*
%TD*%
D21*
%TO.C,J1*%
X160012000Y-112522000D03*
X160012000Y-101092000D03*
%TD*%
M02*
