%TF.GenerationSoftware,KiCad,Pcbnew,(6.0.8)*%
%TF.CreationDate,2023-04-21T18:28:09-07:00*%
%TF.ProjectId,Capstone_PCB,43617073-746f-46e6-955f-5043422e6b69,rev?*%
%TF.SameCoordinates,Original*%
%TF.FileFunction,Drillmap*%
%TF.FilePolarity,Positive*%
%FSLAX45Y45*%
G04 Gerber Fmt 4.5, Leading zero omitted, Abs format (unit mm)*
G04 Created by KiCad (PCBNEW (6.0.8)) date 2023-04-21 18:28:09*
%MOMM*%
%LPD*%
G01*
G04 APERTURE LIST*
%ADD10C,0.100000*%
%ADD11C,0.200000*%
%ADD12C,0.065000*%
%ADD13C,0.160000*%
%ADD14C,0.180000*%
%ADD15C,0.220000*%
%ADD16C,0.320000*%
%ADD17C,0.345000*%
G04 APERTURE END LIST*
D10*
X11430000Y-4318000D02*
X11430000Y-12039600D01*
X11430000Y-12039600D02*
X17780000Y-12039600D01*
X11430000Y-4318000D02*
X17780000Y-4318000D01*
X17780000Y-4318000D02*
X17780000Y-12039600D01*
D11*
D12*
X17193400Y-6354800D02*
X17258400Y-6419800D01*
X17258400Y-6354800D02*
X17193400Y-6419800D01*
X17193400Y-6932800D02*
X17258400Y-6997800D01*
X17258400Y-6932800D02*
X17193400Y-6997800D01*
D13*
X17654500Y-5482500D02*
G75*
G03*
X17654500Y-5482500I-80000J0D01*
G01*
D14*
X17124500Y-5392500D02*
X17124500Y-5572500D01*
X17034500Y-5482500D02*
X17214500Y-5482500D01*
D15*
X11935382Y-5085883D02*
X11935382Y-4930318D01*
X11779817Y-4930318D01*
X11779817Y-5085883D01*
X11935382Y-5085883D01*
X11935382Y-10785883D02*
X11935382Y-10630318D01*
X11779817Y-10630318D01*
X11779817Y-10785883D01*
X11935382Y-10785883D01*
X13985382Y-5085883D02*
X13985382Y-4930318D01*
X13829817Y-4930318D01*
X13829817Y-5085883D01*
X13985382Y-5085883D01*
X13985382Y-10785883D02*
X13985382Y-10630318D01*
X13829817Y-10630318D01*
X13829817Y-10785883D01*
X13985382Y-10785883D01*
D16*
X11684000Y-4732000D02*
X11844000Y-4572000D01*
X11684000Y-4412000D01*
X11524000Y-4572000D01*
X11684000Y-4732000D01*
X11684000Y-4732000D02*
X11844000Y-4572000D01*
X11684000Y-4412000D01*
X11524000Y-4572000D01*
X11684000Y-4732000D01*
X11684000Y-11945600D02*
X11844000Y-11785600D01*
X11684000Y-11625600D01*
X11524000Y-11785600D01*
X11684000Y-11945600D01*
X11684000Y-11945600D02*
X11844000Y-11785600D01*
X11684000Y-11625600D01*
X11524000Y-11785600D01*
X11684000Y-11945600D01*
X17526000Y-4732000D02*
X17686000Y-4572000D01*
X17526000Y-4412000D01*
X17366000Y-4572000D01*
X17526000Y-4732000D01*
X17526000Y-11945600D02*
X17686000Y-11785600D01*
X17526000Y-11625600D01*
X17366000Y-11785600D01*
X17526000Y-11945600D01*
D17*
X15828700Y-9936700D02*
X16173700Y-10281700D01*
X16173700Y-9936700D02*
X15828700Y-10281700D01*
X16173700Y-10109200D02*
G75*
G03*
X16173700Y-10109200I-172500J0D01*
G01*
X15828700Y-11079700D02*
X16173700Y-11424700D01*
X16173700Y-11079700D02*
X15828700Y-11424700D01*
X16173700Y-11252200D02*
G75*
G03*
X16173700Y-11252200I-172500J0D01*
G01*
D11*
X11682619Y-12355076D02*
X11682619Y-12155076D01*
X11730238Y-12155076D01*
X11758809Y-12164600D01*
X11777857Y-12183648D01*
X11787381Y-12202695D01*
X11796905Y-12240790D01*
X11796905Y-12269362D01*
X11787381Y-12307457D01*
X11777857Y-12326505D01*
X11758809Y-12345552D01*
X11730238Y-12355076D01*
X11682619Y-12355076D01*
X11882619Y-12355076D02*
X11882619Y-12221743D01*
X11882619Y-12259838D02*
X11892143Y-12240790D01*
X11901667Y-12231267D01*
X11920714Y-12221743D01*
X11939762Y-12221743D01*
X12006428Y-12355076D02*
X12006428Y-12221743D01*
X12006428Y-12155076D02*
X11996905Y-12164600D01*
X12006428Y-12174124D01*
X12015952Y-12164600D01*
X12006428Y-12155076D01*
X12006428Y-12174124D01*
X12130238Y-12355076D02*
X12111190Y-12345552D01*
X12101667Y-12326505D01*
X12101667Y-12155076D01*
X12235000Y-12355076D02*
X12215952Y-12345552D01*
X12206428Y-12326505D01*
X12206428Y-12155076D01*
X12463571Y-12355076D02*
X12463571Y-12155076D01*
X12530238Y-12297933D01*
X12596905Y-12155076D01*
X12596905Y-12355076D01*
X12777857Y-12355076D02*
X12777857Y-12250314D01*
X12768333Y-12231267D01*
X12749286Y-12221743D01*
X12711190Y-12221743D01*
X12692143Y-12231267D01*
X12777857Y-12345552D02*
X12758809Y-12355076D01*
X12711190Y-12355076D01*
X12692143Y-12345552D01*
X12682619Y-12326505D01*
X12682619Y-12307457D01*
X12692143Y-12288409D01*
X12711190Y-12278886D01*
X12758809Y-12278886D01*
X12777857Y-12269362D01*
X12873095Y-12221743D02*
X12873095Y-12421743D01*
X12873095Y-12231267D02*
X12892143Y-12221743D01*
X12930238Y-12221743D01*
X12949286Y-12231267D01*
X12958809Y-12240790D01*
X12968333Y-12259838D01*
X12968333Y-12316981D01*
X12958809Y-12336028D01*
X12949286Y-12345552D01*
X12930238Y-12355076D01*
X12892143Y-12355076D01*
X12873095Y-12345552D01*
X13054048Y-12336028D02*
X13063571Y-12345552D01*
X13054048Y-12355076D01*
X13044524Y-12345552D01*
X13054048Y-12336028D01*
X13054048Y-12355076D01*
X13054048Y-12231267D02*
X13063571Y-12240790D01*
X13054048Y-12250314D01*
X13044524Y-12240790D01*
X13054048Y-12231267D01*
X13054048Y-12250314D01*
D12*
X11360000Y-12652100D02*
X11425000Y-12717100D01*
X11425000Y-12652100D02*
X11360000Y-12717100D01*
D11*
X11720714Y-12575076D02*
X11739762Y-12575076D01*
X11758809Y-12584600D01*
X11768333Y-12594124D01*
X11777857Y-12613171D01*
X11787381Y-12651267D01*
X11787381Y-12698886D01*
X11777857Y-12736981D01*
X11768333Y-12756028D01*
X11758809Y-12765552D01*
X11739762Y-12775076D01*
X11720714Y-12775076D01*
X11701667Y-12765552D01*
X11692143Y-12756028D01*
X11682619Y-12736981D01*
X11673095Y-12698886D01*
X11673095Y-12651267D01*
X11682619Y-12613171D01*
X11692143Y-12594124D01*
X11701667Y-12584600D01*
X11720714Y-12575076D01*
X11873095Y-12756028D02*
X11882619Y-12765552D01*
X11873095Y-12775076D01*
X11863571Y-12765552D01*
X11873095Y-12756028D01*
X11873095Y-12775076D01*
X12054048Y-12575076D02*
X12015952Y-12575076D01*
X11996905Y-12584600D01*
X11987381Y-12594124D01*
X11968333Y-12622695D01*
X11958809Y-12660790D01*
X11958809Y-12736981D01*
X11968333Y-12756028D01*
X11977857Y-12765552D01*
X11996905Y-12775076D01*
X12035000Y-12775076D01*
X12054048Y-12765552D01*
X12063571Y-12756028D01*
X12073095Y-12736981D01*
X12073095Y-12689362D01*
X12063571Y-12670314D01*
X12054048Y-12660790D01*
X12035000Y-12651267D01*
X11996905Y-12651267D01*
X11977857Y-12660790D01*
X11968333Y-12670314D01*
X11958809Y-12689362D01*
X12254048Y-12575076D02*
X12158809Y-12575076D01*
X12149286Y-12670314D01*
X12158809Y-12660790D01*
X12177857Y-12651267D01*
X12225476Y-12651267D01*
X12244524Y-12660790D01*
X12254048Y-12670314D01*
X12263571Y-12689362D01*
X12263571Y-12736981D01*
X12254048Y-12756028D01*
X12244524Y-12765552D01*
X12225476Y-12775076D01*
X12177857Y-12775076D01*
X12158809Y-12765552D01*
X12149286Y-12756028D01*
X12387381Y-12575076D02*
X12406428Y-12575076D01*
X12425476Y-12584600D01*
X12435000Y-12594124D01*
X12444524Y-12613171D01*
X12454048Y-12651267D01*
X12454048Y-12698886D01*
X12444524Y-12736981D01*
X12435000Y-12756028D01*
X12425476Y-12765552D01*
X12406428Y-12775076D01*
X12387381Y-12775076D01*
X12368333Y-12765552D01*
X12358809Y-12756028D01*
X12349286Y-12736981D01*
X12339762Y-12698886D01*
X12339762Y-12651267D01*
X12349286Y-12613171D01*
X12358809Y-12594124D01*
X12368333Y-12584600D01*
X12387381Y-12575076D01*
X12539762Y-12775076D02*
X12539762Y-12641743D01*
X12539762Y-12660790D02*
X12549286Y-12651267D01*
X12568333Y-12641743D01*
X12596905Y-12641743D01*
X12615952Y-12651267D01*
X12625476Y-12670314D01*
X12625476Y-12775076D01*
X12625476Y-12670314D02*
X12635000Y-12651267D01*
X12654048Y-12641743D01*
X12682619Y-12641743D01*
X12701667Y-12651267D01*
X12711190Y-12670314D01*
X12711190Y-12775076D01*
X12806428Y-12775076D02*
X12806428Y-12641743D01*
X12806428Y-12660790D02*
X12815952Y-12651267D01*
X12835000Y-12641743D01*
X12863571Y-12641743D01*
X12882619Y-12651267D01*
X12892143Y-12670314D01*
X12892143Y-12775076D01*
X12892143Y-12670314D02*
X12901667Y-12651267D01*
X12920714Y-12641743D01*
X12949286Y-12641743D01*
X12968333Y-12651267D01*
X12977857Y-12670314D01*
X12977857Y-12775076D01*
X13368333Y-12565552D02*
X13196905Y-12822695D01*
X13625476Y-12575076D02*
X13644524Y-12575076D01*
X13663571Y-12584600D01*
X13673095Y-12594124D01*
X13682619Y-12613171D01*
X13692143Y-12651267D01*
X13692143Y-12698886D01*
X13682619Y-12736981D01*
X13673095Y-12756028D01*
X13663571Y-12765552D01*
X13644524Y-12775076D01*
X13625476Y-12775076D01*
X13606428Y-12765552D01*
X13596905Y-12756028D01*
X13587381Y-12736981D01*
X13577857Y-12698886D01*
X13577857Y-12651267D01*
X13587381Y-12613171D01*
X13596905Y-12594124D01*
X13606428Y-12584600D01*
X13625476Y-12575076D01*
X13777857Y-12756028D02*
X13787381Y-12765552D01*
X13777857Y-12775076D01*
X13768333Y-12765552D01*
X13777857Y-12756028D01*
X13777857Y-12775076D01*
X13911190Y-12575076D02*
X13930238Y-12575076D01*
X13949286Y-12584600D01*
X13958809Y-12594124D01*
X13968333Y-12613171D01*
X13977857Y-12651267D01*
X13977857Y-12698886D01*
X13968333Y-12736981D01*
X13958809Y-12756028D01*
X13949286Y-12765552D01*
X13930238Y-12775076D01*
X13911190Y-12775076D01*
X13892143Y-12765552D01*
X13882619Y-12756028D01*
X13873095Y-12736981D01*
X13863571Y-12698886D01*
X13863571Y-12651267D01*
X13873095Y-12613171D01*
X13882619Y-12594124D01*
X13892143Y-12584600D01*
X13911190Y-12575076D01*
X14054048Y-12594124D02*
X14063571Y-12584600D01*
X14082619Y-12575076D01*
X14130238Y-12575076D01*
X14149286Y-12584600D01*
X14158809Y-12594124D01*
X14168333Y-12613171D01*
X14168333Y-12632219D01*
X14158809Y-12660790D01*
X14044524Y-12775076D01*
X14168333Y-12775076D01*
X14349286Y-12575076D02*
X14254048Y-12575076D01*
X14244524Y-12670314D01*
X14254048Y-12660790D01*
X14273095Y-12651267D01*
X14320714Y-12651267D01*
X14339762Y-12660790D01*
X14349286Y-12670314D01*
X14358809Y-12689362D01*
X14358809Y-12736981D01*
X14349286Y-12756028D01*
X14339762Y-12765552D01*
X14320714Y-12775076D01*
X14273095Y-12775076D01*
X14254048Y-12765552D01*
X14244524Y-12756028D01*
X14530238Y-12575076D02*
X14492143Y-12575076D01*
X14473095Y-12584600D01*
X14463571Y-12594124D01*
X14444524Y-12622695D01*
X14435000Y-12660790D01*
X14435000Y-12736981D01*
X14444524Y-12756028D01*
X14454048Y-12765552D01*
X14473095Y-12775076D01*
X14511190Y-12775076D01*
X14530238Y-12765552D01*
X14539762Y-12756028D01*
X14549286Y-12736981D01*
X14549286Y-12689362D01*
X14539762Y-12670314D01*
X14530238Y-12660790D01*
X14511190Y-12651267D01*
X14473095Y-12651267D01*
X14454048Y-12660790D01*
X14444524Y-12670314D01*
X14435000Y-12689362D01*
X14625476Y-12575076D02*
X14625476Y-12613171D01*
X14701667Y-12575076D02*
X14701667Y-12613171D01*
X14996905Y-12851267D02*
X14987381Y-12841743D01*
X14968333Y-12813171D01*
X14958809Y-12794124D01*
X14949286Y-12765552D01*
X14939762Y-12717933D01*
X14939762Y-12679838D01*
X14949286Y-12632219D01*
X14958809Y-12603648D01*
X14968333Y-12584600D01*
X14987381Y-12556028D01*
X14996905Y-12546505D01*
X15063571Y-12594124D02*
X15073095Y-12584600D01*
X15092143Y-12575076D01*
X15139762Y-12575076D01*
X15158809Y-12584600D01*
X15168333Y-12594124D01*
X15177857Y-12613171D01*
X15177857Y-12632219D01*
X15168333Y-12660790D01*
X15054048Y-12775076D01*
X15177857Y-12775076D01*
X15415952Y-12775076D02*
X15415952Y-12575076D01*
X15501667Y-12775076D02*
X15501667Y-12670314D01*
X15492143Y-12651267D01*
X15473095Y-12641743D01*
X15444524Y-12641743D01*
X15425476Y-12651267D01*
X15415952Y-12660790D01*
X15625476Y-12775076D02*
X15606428Y-12765552D01*
X15596905Y-12756028D01*
X15587381Y-12736981D01*
X15587381Y-12679838D01*
X15596905Y-12660790D01*
X15606428Y-12651267D01*
X15625476Y-12641743D01*
X15654048Y-12641743D01*
X15673095Y-12651267D01*
X15682619Y-12660790D01*
X15692143Y-12679838D01*
X15692143Y-12736981D01*
X15682619Y-12756028D01*
X15673095Y-12765552D01*
X15654048Y-12775076D01*
X15625476Y-12775076D01*
X15806428Y-12775076D02*
X15787381Y-12765552D01*
X15777857Y-12746505D01*
X15777857Y-12575076D01*
X15958809Y-12765552D02*
X15939762Y-12775076D01*
X15901667Y-12775076D01*
X15882619Y-12765552D01*
X15873095Y-12746505D01*
X15873095Y-12670314D01*
X15882619Y-12651267D01*
X15901667Y-12641743D01*
X15939762Y-12641743D01*
X15958809Y-12651267D01*
X15968333Y-12670314D01*
X15968333Y-12689362D01*
X15873095Y-12708409D01*
X16044524Y-12765552D02*
X16063571Y-12775076D01*
X16101667Y-12775076D01*
X16120714Y-12765552D01*
X16130238Y-12746505D01*
X16130238Y-12736981D01*
X16120714Y-12717933D01*
X16101667Y-12708409D01*
X16073095Y-12708409D01*
X16054048Y-12698886D01*
X16044524Y-12679838D01*
X16044524Y-12670314D01*
X16054048Y-12651267D01*
X16073095Y-12641743D01*
X16101667Y-12641743D01*
X16120714Y-12651267D01*
X16196905Y-12851267D02*
X16206428Y-12841743D01*
X16225476Y-12813171D01*
X16235000Y-12794124D01*
X16244524Y-12765552D01*
X16254048Y-12717933D01*
X16254048Y-12679838D01*
X16244524Y-12632219D01*
X16235000Y-12603648D01*
X16225476Y-12584600D01*
X16206428Y-12556028D01*
X16196905Y-12546505D01*
X16558809Y-12851267D02*
X16549286Y-12841743D01*
X16530238Y-12813171D01*
X16520714Y-12794124D01*
X16511190Y-12765552D01*
X16501667Y-12717933D01*
X16501667Y-12679838D01*
X16511190Y-12632219D01*
X16520714Y-12603648D01*
X16530238Y-12584600D01*
X16549286Y-12556028D01*
X16558809Y-12546505D01*
X16635000Y-12641743D02*
X16635000Y-12775076D01*
X16635000Y-12660790D02*
X16644524Y-12651267D01*
X16663571Y-12641743D01*
X16692143Y-12641743D01*
X16711190Y-12651267D01*
X16720714Y-12670314D01*
X16720714Y-12775076D01*
X16844524Y-12775076D02*
X16825476Y-12765552D01*
X16815952Y-12756028D01*
X16806429Y-12736981D01*
X16806429Y-12679838D01*
X16815952Y-12660790D01*
X16825476Y-12651267D01*
X16844524Y-12641743D01*
X16873095Y-12641743D01*
X16892143Y-12651267D01*
X16901667Y-12660790D01*
X16911190Y-12679838D01*
X16911190Y-12736981D01*
X16901667Y-12756028D01*
X16892143Y-12765552D01*
X16873095Y-12775076D01*
X16844524Y-12775076D01*
X16968333Y-12641743D02*
X17044524Y-12641743D01*
X16996905Y-12575076D02*
X16996905Y-12746505D01*
X17006429Y-12765552D01*
X17025476Y-12775076D01*
X17044524Y-12775076D01*
X17263571Y-12641743D02*
X17263571Y-12841743D01*
X17263571Y-12651267D02*
X17282619Y-12641743D01*
X17320714Y-12641743D01*
X17339762Y-12651267D01*
X17349286Y-12660790D01*
X17358810Y-12679838D01*
X17358810Y-12736981D01*
X17349286Y-12756028D01*
X17339762Y-12765552D01*
X17320714Y-12775076D01*
X17282619Y-12775076D01*
X17263571Y-12765552D01*
X17473095Y-12775076D02*
X17454048Y-12765552D01*
X17444524Y-12746505D01*
X17444524Y-12575076D01*
X17635000Y-12775076D02*
X17635000Y-12670314D01*
X17625476Y-12651267D01*
X17606429Y-12641743D01*
X17568333Y-12641743D01*
X17549286Y-12651267D01*
X17635000Y-12765552D02*
X17615952Y-12775076D01*
X17568333Y-12775076D01*
X17549286Y-12765552D01*
X17539762Y-12746505D01*
X17539762Y-12727457D01*
X17549286Y-12708409D01*
X17568333Y-12698886D01*
X17615952Y-12698886D01*
X17635000Y-12689362D01*
X17701667Y-12641743D02*
X17777857Y-12641743D01*
X17730238Y-12575076D02*
X17730238Y-12746505D01*
X17739762Y-12765552D01*
X17758810Y-12775076D01*
X17777857Y-12775076D01*
X17920714Y-12765552D02*
X17901667Y-12775076D01*
X17863571Y-12775076D01*
X17844524Y-12765552D01*
X17835000Y-12746505D01*
X17835000Y-12670314D01*
X17844524Y-12651267D01*
X17863571Y-12641743D01*
X17901667Y-12641743D01*
X17920714Y-12651267D01*
X17930238Y-12670314D01*
X17930238Y-12689362D01*
X17835000Y-12708409D01*
X18101667Y-12775076D02*
X18101667Y-12575076D01*
X18101667Y-12765552D02*
X18082619Y-12775076D01*
X18044524Y-12775076D01*
X18025476Y-12765552D01*
X18015952Y-12756028D01*
X18006429Y-12736981D01*
X18006429Y-12679838D01*
X18015952Y-12660790D01*
X18025476Y-12651267D01*
X18044524Y-12641743D01*
X18082619Y-12641743D01*
X18101667Y-12651267D01*
X18177857Y-12851267D02*
X18187381Y-12841743D01*
X18206429Y-12813171D01*
X18215952Y-12794124D01*
X18225476Y-12765552D01*
X18235000Y-12717933D01*
X18235000Y-12679838D01*
X18225476Y-12632219D01*
X18215952Y-12603648D01*
X18206429Y-12584600D01*
X18187381Y-12556028D01*
X18177857Y-12546505D01*
D13*
X11425000Y-12948600D02*
G75*
G03*
X11425000Y-12948600I-80000J0D01*
G01*
D11*
X11787381Y-13039076D02*
X11673095Y-13039076D01*
X11730238Y-13039076D02*
X11730238Y-12839076D01*
X11711190Y-12867648D01*
X11692143Y-12886695D01*
X11673095Y-12896219D01*
X11873095Y-13020028D02*
X11882619Y-13029552D01*
X11873095Y-13039076D01*
X11863571Y-13029552D01*
X11873095Y-13020028D01*
X11873095Y-13039076D01*
X12054048Y-12839076D02*
X12015952Y-12839076D01*
X11996905Y-12848600D01*
X11987381Y-12858124D01*
X11968333Y-12886695D01*
X11958809Y-12924790D01*
X11958809Y-13000981D01*
X11968333Y-13020028D01*
X11977857Y-13029552D01*
X11996905Y-13039076D01*
X12035000Y-13039076D01*
X12054048Y-13029552D01*
X12063571Y-13020028D01*
X12073095Y-13000981D01*
X12073095Y-12953362D01*
X12063571Y-12934314D01*
X12054048Y-12924790D01*
X12035000Y-12915267D01*
X11996905Y-12915267D01*
X11977857Y-12924790D01*
X11968333Y-12934314D01*
X11958809Y-12953362D01*
X12196905Y-12839076D02*
X12215952Y-12839076D01*
X12235000Y-12848600D01*
X12244524Y-12858124D01*
X12254048Y-12877171D01*
X12263571Y-12915267D01*
X12263571Y-12962886D01*
X12254048Y-13000981D01*
X12244524Y-13020028D01*
X12235000Y-13029552D01*
X12215952Y-13039076D01*
X12196905Y-13039076D01*
X12177857Y-13029552D01*
X12168333Y-13020028D01*
X12158809Y-13000981D01*
X12149286Y-12962886D01*
X12149286Y-12915267D01*
X12158809Y-12877171D01*
X12168333Y-12858124D01*
X12177857Y-12848600D01*
X12196905Y-12839076D01*
X12387381Y-12839076D02*
X12406428Y-12839076D01*
X12425476Y-12848600D01*
X12435000Y-12858124D01*
X12444524Y-12877171D01*
X12454048Y-12915267D01*
X12454048Y-12962886D01*
X12444524Y-13000981D01*
X12435000Y-13020028D01*
X12425476Y-13029552D01*
X12406428Y-13039076D01*
X12387381Y-13039076D01*
X12368333Y-13029552D01*
X12358809Y-13020028D01*
X12349286Y-13000981D01*
X12339762Y-12962886D01*
X12339762Y-12915267D01*
X12349286Y-12877171D01*
X12358809Y-12858124D01*
X12368333Y-12848600D01*
X12387381Y-12839076D01*
X12539762Y-13039076D02*
X12539762Y-12905743D01*
X12539762Y-12924790D02*
X12549286Y-12915267D01*
X12568333Y-12905743D01*
X12596905Y-12905743D01*
X12615952Y-12915267D01*
X12625476Y-12934314D01*
X12625476Y-13039076D01*
X12625476Y-12934314D02*
X12635000Y-12915267D01*
X12654048Y-12905743D01*
X12682619Y-12905743D01*
X12701667Y-12915267D01*
X12711190Y-12934314D01*
X12711190Y-13039076D01*
X12806428Y-13039076D02*
X12806428Y-12905743D01*
X12806428Y-12924790D02*
X12815952Y-12915267D01*
X12835000Y-12905743D01*
X12863571Y-12905743D01*
X12882619Y-12915267D01*
X12892143Y-12934314D01*
X12892143Y-13039076D01*
X12892143Y-12934314D02*
X12901667Y-12915267D01*
X12920714Y-12905743D01*
X12949286Y-12905743D01*
X12968333Y-12915267D01*
X12977857Y-12934314D01*
X12977857Y-13039076D01*
X13368333Y-12829552D02*
X13196905Y-13086695D01*
X13625476Y-12839076D02*
X13644524Y-12839076D01*
X13663571Y-12848600D01*
X13673095Y-12858124D01*
X13682619Y-12877171D01*
X13692143Y-12915267D01*
X13692143Y-12962886D01*
X13682619Y-13000981D01*
X13673095Y-13020028D01*
X13663571Y-13029552D01*
X13644524Y-13039076D01*
X13625476Y-13039076D01*
X13606428Y-13029552D01*
X13596905Y-13020028D01*
X13587381Y-13000981D01*
X13577857Y-12962886D01*
X13577857Y-12915267D01*
X13587381Y-12877171D01*
X13596905Y-12858124D01*
X13606428Y-12848600D01*
X13625476Y-12839076D01*
X13777857Y-13020028D02*
X13787381Y-13029552D01*
X13777857Y-13039076D01*
X13768333Y-13029552D01*
X13777857Y-13020028D01*
X13777857Y-13039076D01*
X13911190Y-12839076D02*
X13930238Y-12839076D01*
X13949286Y-12848600D01*
X13958809Y-12858124D01*
X13968333Y-12877171D01*
X13977857Y-12915267D01*
X13977857Y-12962886D01*
X13968333Y-13000981D01*
X13958809Y-13020028D01*
X13949286Y-13029552D01*
X13930238Y-13039076D01*
X13911190Y-13039076D01*
X13892143Y-13029552D01*
X13882619Y-13020028D01*
X13873095Y-13000981D01*
X13863571Y-12962886D01*
X13863571Y-12915267D01*
X13873095Y-12877171D01*
X13882619Y-12858124D01*
X13892143Y-12848600D01*
X13911190Y-12839076D01*
X14149286Y-12839076D02*
X14111190Y-12839076D01*
X14092143Y-12848600D01*
X14082619Y-12858124D01*
X14063571Y-12886695D01*
X14054048Y-12924790D01*
X14054048Y-13000981D01*
X14063571Y-13020028D01*
X14073095Y-13029552D01*
X14092143Y-13039076D01*
X14130238Y-13039076D01*
X14149286Y-13029552D01*
X14158809Y-13020028D01*
X14168333Y-13000981D01*
X14168333Y-12953362D01*
X14158809Y-12934314D01*
X14149286Y-12924790D01*
X14130238Y-12915267D01*
X14092143Y-12915267D01*
X14073095Y-12924790D01*
X14063571Y-12934314D01*
X14054048Y-12953362D01*
X14235000Y-12839076D02*
X14358809Y-12839076D01*
X14292143Y-12915267D01*
X14320714Y-12915267D01*
X14339762Y-12924790D01*
X14349286Y-12934314D01*
X14358809Y-12953362D01*
X14358809Y-13000981D01*
X14349286Y-13020028D01*
X14339762Y-13029552D01*
X14320714Y-13039076D01*
X14263571Y-13039076D01*
X14244524Y-13029552D01*
X14235000Y-13020028D01*
X14482619Y-12839076D02*
X14501667Y-12839076D01*
X14520714Y-12848600D01*
X14530238Y-12858124D01*
X14539762Y-12877171D01*
X14549286Y-12915267D01*
X14549286Y-12962886D01*
X14539762Y-13000981D01*
X14530238Y-13020028D01*
X14520714Y-13029552D01*
X14501667Y-13039076D01*
X14482619Y-13039076D01*
X14463571Y-13029552D01*
X14454048Y-13020028D01*
X14444524Y-13000981D01*
X14435000Y-12962886D01*
X14435000Y-12915267D01*
X14444524Y-12877171D01*
X14454048Y-12858124D01*
X14463571Y-12848600D01*
X14482619Y-12839076D01*
X14625476Y-12839076D02*
X14625476Y-12877171D01*
X14701667Y-12839076D02*
X14701667Y-12877171D01*
X14996905Y-13115267D02*
X14987381Y-13105743D01*
X14968333Y-13077171D01*
X14958809Y-13058124D01*
X14949286Y-13029552D01*
X14939762Y-12981933D01*
X14939762Y-12943838D01*
X14949286Y-12896219D01*
X14958809Y-12867648D01*
X14968333Y-12848600D01*
X14987381Y-12820028D01*
X14996905Y-12810505D01*
X15177857Y-13039076D02*
X15063571Y-13039076D01*
X15120714Y-13039076D02*
X15120714Y-12839076D01*
X15101667Y-12867648D01*
X15082619Y-12886695D01*
X15063571Y-12896219D01*
X15415952Y-13039076D02*
X15415952Y-12839076D01*
X15501667Y-13039076D02*
X15501667Y-12934314D01*
X15492143Y-12915267D01*
X15473095Y-12905743D01*
X15444524Y-12905743D01*
X15425476Y-12915267D01*
X15415952Y-12924790D01*
X15625476Y-13039076D02*
X15606428Y-13029552D01*
X15596905Y-13020028D01*
X15587381Y-13000981D01*
X15587381Y-12943838D01*
X15596905Y-12924790D01*
X15606428Y-12915267D01*
X15625476Y-12905743D01*
X15654048Y-12905743D01*
X15673095Y-12915267D01*
X15682619Y-12924790D01*
X15692143Y-12943838D01*
X15692143Y-13000981D01*
X15682619Y-13020028D01*
X15673095Y-13029552D01*
X15654048Y-13039076D01*
X15625476Y-13039076D01*
X15806428Y-13039076D02*
X15787381Y-13029552D01*
X15777857Y-13010505D01*
X15777857Y-12839076D01*
X15958809Y-13029552D02*
X15939762Y-13039076D01*
X15901667Y-13039076D01*
X15882619Y-13029552D01*
X15873095Y-13010505D01*
X15873095Y-12934314D01*
X15882619Y-12915267D01*
X15901667Y-12905743D01*
X15939762Y-12905743D01*
X15958809Y-12915267D01*
X15968333Y-12934314D01*
X15968333Y-12953362D01*
X15873095Y-12972409D01*
X16035000Y-13115267D02*
X16044524Y-13105743D01*
X16063571Y-13077171D01*
X16073095Y-13058124D01*
X16082619Y-13029552D01*
X16092143Y-12981933D01*
X16092143Y-12943838D01*
X16082619Y-12896219D01*
X16073095Y-12867648D01*
X16063571Y-12848600D01*
X16044524Y-12820028D01*
X16035000Y-12810505D01*
X16396905Y-13115267D02*
X16387381Y-13105743D01*
X16368333Y-13077171D01*
X16358809Y-13058124D01*
X16349286Y-13029552D01*
X16339762Y-12981933D01*
X16339762Y-12943838D01*
X16349286Y-12896219D01*
X16358809Y-12867648D01*
X16368333Y-12848600D01*
X16387381Y-12820028D01*
X16396905Y-12810505D01*
X16473095Y-12905743D02*
X16473095Y-13039076D01*
X16473095Y-12924790D02*
X16482619Y-12915267D01*
X16501667Y-12905743D01*
X16530238Y-12905743D01*
X16549286Y-12915267D01*
X16558809Y-12934314D01*
X16558809Y-13039076D01*
X16682619Y-13039076D02*
X16663571Y-13029552D01*
X16654048Y-13020028D01*
X16644524Y-13000981D01*
X16644524Y-12943838D01*
X16654048Y-12924790D01*
X16663571Y-12915267D01*
X16682619Y-12905743D01*
X16711190Y-12905743D01*
X16730238Y-12915267D01*
X16739762Y-12924790D01*
X16749286Y-12943838D01*
X16749286Y-13000981D01*
X16739762Y-13020028D01*
X16730238Y-13029552D01*
X16711190Y-13039076D01*
X16682619Y-13039076D01*
X16806429Y-12905743D02*
X16882619Y-12905743D01*
X16835000Y-12839076D02*
X16835000Y-13010505D01*
X16844524Y-13029552D01*
X16863571Y-13039076D01*
X16882619Y-13039076D01*
X17101667Y-12905743D02*
X17101667Y-13105743D01*
X17101667Y-12915267D02*
X17120714Y-12905743D01*
X17158810Y-12905743D01*
X17177857Y-12915267D01*
X17187381Y-12924790D01*
X17196905Y-12943838D01*
X17196905Y-13000981D01*
X17187381Y-13020028D01*
X17177857Y-13029552D01*
X17158810Y-13039076D01*
X17120714Y-13039076D01*
X17101667Y-13029552D01*
X17311190Y-13039076D02*
X17292143Y-13029552D01*
X17282619Y-13010505D01*
X17282619Y-12839076D01*
X17473095Y-13039076D02*
X17473095Y-12934314D01*
X17463571Y-12915267D01*
X17444524Y-12905743D01*
X17406429Y-12905743D01*
X17387381Y-12915267D01*
X17473095Y-13029552D02*
X17454048Y-13039076D01*
X17406429Y-13039076D01*
X17387381Y-13029552D01*
X17377857Y-13010505D01*
X17377857Y-12991457D01*
X17387381Y-12972409D01*
X17406429Y-12962886D01*
X17454048Y-12962886D01*
X17473095Y-12953362D01*
X17539762Y-12905743D02*
X17615952Y-12905743D01*
X17568333Y-12839076D02*
X17568333Y-13010505D01*
X17577857Y-13029552D01*
X17596905Y-13039076D01*
X17615952Y-13039076D01*
X17758810Y-13029552D02*
X17739762Y-13039076D01*
X17701667Y-13039076D01*
X17682619Y-13029552D01*
X17673095Y-13010505D01*
X17673095Y-12934314D01*
X17682619Y-12915267D01*
X17701667Y-12905743D01*
X17739762Y-12905743D01*
X17758810Y-12915267D01*
X17768333Y-12934314D01*
X17768333Y-12953362D01*
X17673095Y-12972409D01*
X17939762Y-13039076D02*
X17939762Y-12839076D01*
X17939762Y-13029552D02*
X17920714Y-13039076D01*
X17882619Y-13039076D01*
X17863571Y-13029552D01*
X17854048Y-13020028D01*
X17844524Y-13000981D01*
X17844524Y-12943838D01*
X17854048Y-12924790D01*
X17863571Y-12915267D01*
X17882619Y-12905743D01*
X17920714Y-12905743D01*
X17939762Y-12915267D01*
X18015952Y-13115267D02*
X18025476Y-13105743D01*
X18044524Y-13077171D01*
X18054048Y-13058124D01*
X18063571Y-13029552D01*
X18073095Y-12981933D01*
X18073095Y-12943838D01*
X18063571Y-12896219D01*
X18054048Y-12867648D01*
X18044524Y-12848600D01*
X18025476Y-12820028D01*
X18015952Y-12810505D01*
D14*
X11335000Y-13138600D02*
X11335000Y-13318600D01*
X11245000Y-13228600D02*
X11425000Y-13228600D01*
D11*
X11787381Y-13319076D02*
X11673095Y-13319076D01*
X11730238Y-13319076D02*
X11730238Y-13119076D01*
X11711190Y-13147648D01*
X11692143Y-13166695D01*
X11673095Y-13176219D01*
X11873095Y-13300028D02*
X11882619Y-13309552D01*
X11873095Y-13319076D01*
X11863571Y-13309552D01*
X11873095Y-13300028D01*
X11873095Y-13319076D01*
X11996905Y-13204790D02*
X11977857Y-13195267D01*
X11968333Y-13185743D01*
X11958809Y-13166695D01*
X11958809Y-13157171D01*
X11968333Y-13138124D01*
X11977857Y-13128600D01*
X11996905Y-13119076D01*
X12035000Y-13119076D01*
X12054048Y-13128600D01*
X12063571Y-13138124D01*
X12073095Y-13157171D01*
X12073095Y-13166695D01*
X12063571Y-13185743D01*
X12054048Y-13195267D01*
X12035000Y-13204790D01*
X11996905Y-13204790D01*
X11977857Y-13214314D01*
X11968333Y-13223838D01*
X11958809Y-13242886D01*
X11958809Y-13280981D01*
X11968333Y-13300028D01*
X11977857Y-13309552D01*
X11996905Y-13319076D01*
X12035000Y-13319076D01*
X12054048Y-13309552D01*
X12063571Y-13300028D01*
X12073095Y-13280981D01*
X12073095Y-13242886D01*
X12063571Y-13223838D01*
X12054048Y-13214314D01*
X12035000Y-13204790D01*
X12196905Y-13119076D02*
X12215952Y-13119076D01*
X12235000Y-13128600D01*
X12244524Y-13138124D01*
X12254048Y-13157171D01*
X12263571Y-13195267D01*
X12263571Y-13242886D01*
X12254048Y-13280981D01*
X12244524Y-13300028D01*
X12235000Y-13309552D01*
X12215952Y-13319076D01*
X12196905Y-13319076D01*
X12177857Y-13309552D01*
X12168333Y-13300028D01*
X12158809Y-13280981D01*
X12149286Y-13242886D01*
X12149286Y-13195267D01*
X12158809Y-13157171D01*
X12168333Y-13138124D01*
X12177857Y-13128600D01*
X12196905Y-13119076D01*
X12387381Y-13119076D02*
X12406428Y-13119076D01*
X12425476Y-13128600D01*
X12435000Y-13138124D01*
X12444524Y-13157171D01*
X12454048Y-13195267D01*
X12454048Y-13242886D01*
X12444524Y-13280981D01*
X12435000Y-13300028D01*
X12425476Y-13309552D01*
X12406428Y-13319076D01*
X12387381Y-13319076D01*
X12368333Y-13309552D01*
X12358809Y-13300028D01*
X12349286Y-13280981D01*
X12339762Y-13242886D01*
X12339762Y-13195267D01*
X12349286Y-13157171D01*
X12358809Y-13138124D01*
X12368333Y-13128600D01*
X12387381Y-13119076D01*
X12539762Y-13319076D02*
X12539762Y-13185743D01*
X12539762Y-13204790D02*
X12549286Y-13195267D01*
X12568333Y-13185743D01*
X12596905Y-13185743D01*
X12615952Y-13195267D01*
X12625476Y-13214314D01*
X12625476Y-13319076D01*
X12625476Y-13214314D02*
X12635000Y-13195267D01*
X12654048Y-13185743D01*
X12682619Y-13185743D01*
X12701667Y-13195267D01*
X12711190Y-13214314D01*
X12711190Y-13319076D01*
X12806428Y-13319076D02*
X12806428Y-13185743D01*
X12806428Y-13204790D02*
X12815952Y-13195267D01*
X12835000Y-13185743D01*
X12863571Y-13185743D01*
X12882619Y-13195267D01*
X12892143Y-13214314D01*
X12892143Y-13319076D01*
X12892143Y-13214314D02*
X12901667Y-13195267D01*
X12920714Y-13185743D01*
X12949286Y-13185743D01*
X12968333Y-13195267D01*
X12977857Y-13214314D01*
X12977857Y-13319076D01*
X13368333Y-13109552D02*
X13196905Y-13366695D01*
X13625476Y-13119076D02*
X13644524Y-13119076D01*
X13663571Y-13128600D01*
X13673095Y-13138124D01*
X13682619Y-13157171D01*
X13692143Y-13195267D01*
X13692143Y-13242886D01*
X13682619Y-13280981D01*
X13673095Y-13300028D01*
X13663571Y-13309552D01*
X13644524Y-13319076D01*
X13625476Y-13319076D01*
X13606428Y-13309552D01*
X13596905Y-13300028D01*
X13587381Y-13280981D01*
X13577857Y-13242886D01*
X13577857Y-13195267D01*
X13587381Y-13157171D01*
X13596905Y-13138124D01*
X13606428Y-13128600D01*
X13625476Y-13119076D01*
X13777857Y-13300028D02*
X13787381Y-13309552D01*
X13777857Y-13319076D01*
X13768333Y-13309552D01*
X13777857Y-13300028D01*
X13777857Y-13319076D01*
X13911190Y-13119076D02*
X13930238Y-13119076D01*
X13949286Y-13128600D01*
X13958809Y-13138124D01*
X13968333Y-13157171D01*
X13977857Y-13195267D01*
X13977857Y-13242886D01*
X13968333Y-13280981D01*
X13958809Y-13300028D01*
X13949286Y-13309552D01*
X13930238Y-13319076D01*
X13911190Y-13319076D01*
X13892143Y-13309552D01*
X13882619Y-13300028D01*
X13873095Y-13280981D01*
X13863571Y-13242886D01*
X13863571Y-13195267D01*
X13873095Y-13157171D01*
X13882619Y-13138124D01*
X13892143Y-13128600D01*
X13911190Y-13119076D01*
X14044524Y-13119076D02*
X14177857Y-13119076D01*
X14092143Y-13319076D01*
X14292143Y-13119076D02*
X14311190Y-13119076D01*
X14330238Y-13128600D01*
X14339762Y-13138124D01*
X14349286Y-13157171D01*
X14358809Y-13195267D01*
X14358809Y-13242886D01*
X14349286Y-13280981D01*
X14339762Y-13300028D01*
X14330238Y-13309552D01*
X14311190Y-13319076D01*
X14292143Y-13319076D01*
X14273095Y-13309552D01*
X14263571Y-13300028D01*
X14254048Y-13280981D01*
X14244524Y-13242886D01*
X14244524Y-13195267D01*
X14254048Y-13157171D01*
X14263571Y-13138124D01*
X14273095Y-13128600D01*
X14292143Y-13119076D01*
X14454048Y-13319076D02*
X14492143Y-13319076D01*
X14511190Y-13309552D01*
X14520714Y-13300028D01*
X14539762Y-13271457D01*
X14549286Y-13233362D01*
X14549286Y-13157171D01*
X14539762Y-13138124D01*
X14530238Y-13128600D01*
X14511190Y-13119076D01*
X14473095Y-13119076D01*
X14454048Y-13128600D01*
X14444524Y-13138124D01*
X14435000Y-13157171D01*
X14435000Y-13204790D01*
X14444524Y-13223838D01*
X14454048Y-13233362D01*
X14473095Y-13242886D01*
X14511190Y-13242886D01*
X14530238Y-13233362D01*
X14539762Y-13223838D01*
X14549286Y-13204790D01*
X14625476Y-13119076D02*
X14625476Y-13157171D01*
X14701667Y-13119076D02*
X14701667Y-13157171D01*
X14996905Y-13395267D02*
X14987381Y-13385743D01*
X14968333Y-13357171D01*
X14958809Y-13338124D01*
X14949286Y-13309552D01*
X14939762Y-13261933D01*
X14939762Y-13223838D01*
X14949286Y-13176219D01*
X14958809Y-13147648D01*
X14968333Y-13128600D01*
X14987381Y-13100028D01*
X14996905Y-13090505D01*
X15177857Y-13319076D02*
X15063571Y-13319076D01*
X15120714Y-13319076D02*
X15120714Y-13119076D01*
X15101667Y-13147648D01*
X15082619Y-13166695D01*
X15063571Y-13176219D01*
X15415952Y-13319076D02*
X15415952Y-13119076D01*
X15501667Y-13319076D02*
X15501667Y-13214314D01*
X15492143Y-13195267D01*
X15473095Y-13185743D01*
X15444524Y-13185743D01*
X15425476Y-13195267D01*
X15415952Y-13204790D01*
X15625476Y-13319076D02*
X15606428Y-13309552D01*
X15596905Y-13300028D01*
X15587381Y-13280981D01*
X15587381Y-13223838D01*
X15596905Y-13204790D01*
X15606428Y-13195267D01*
X15625476Y-13185743D01*
X15654048Y-13185743D01*
X15673095Y-13195267D01*
X15682619Y-13204790D01*
X15692143Y-13223838D01*
X15692143Y-13280981D01*
X15682619Y-13300028D01*
X15673095Y-13309552D01*
X15654048Y-13319076D01*
X15625476Y-13319076D01*
X15806428Y-13319076D02*
X15787381Y-13309552D01*
X15777857Y-13290505D01*
X15777857Y-13119076D01*
X15958809Y-13309552D02*
X15939762Y-13319076D01*
X15901667Y-13319076D01*
X15882619Y-13309552D01*
X15873095Y-13290505D01*
X15873095Y-13214314D01*
X15882619Y-13195267D01*
X15901667Y-13185743D01*
X15939762Y-13185743D01*
X15958809Y-13195267D01*
X15968333Y-13214314D01*
X15968333Y-13233362D01*
X15873095Y-13252409D01*
X16035000Y-13395267D02*
X16044524Y-13385743D01*
X16063571Y-13357171D01*
X16073095Y-13338124D01*
X16082619Y-13309552D01*
X16092143Y-13261933D01*
X16092143Y-13223838D01*
X16082619Y-13176219D01*
X16073095Y-13147648D01*
X16063571Y-13128600D01*
X16044524Y-13100028D01*
X16035000Y-13090505D01*
X16396905Y-13395267D02*
X16387381Y-13385743D01*
X16368333Y-13357171D01*
X16358809Y-13338124D01*
X16349286Y-13309552D01*
X16339762Y-13261933D01*
X16339762Y-13223838D01*
X16349286Y-13176219D01*
X16358809Y-13147648D01*
X16368333Y-13128600D01*
X16387381Y-13100028D01*
X16396905Y-13090505D01*
X16473095Y-13185743D02*
X16473095Y-13319076D01*
X16473095Y-13204790D02*
X16482619Y-13195267D01*
X16501667Y-13185743D01*
X16530238Y-13185743D01*
X16549286Y-13195267D01*
X16558809Y-13214314D01*
X16558809Y-13319076D01*
X16682619Y-13319076D02*
X16663571Y-13309552D01*
X16654048Y-13300028D01*
X16644524Y-13280981D01*
X16644524Y-13223838D01*
X16654048Y-13204790D01*
X16663571Y-13195267D01*
X16682619Y-13185743D01*
X16711190Y-13185743D01*
X16730238Y-13195267D01*
X16739762Y-13204790D01*
X16749286Y-13223838D01*
X16749286Y-13280981D01*
X16739762Y-13300028D01*
X16730238Y-13309552D01*
X16711190Y-13319076D01*
X16682619Y-13319076D01*
X16806429Y-13185743D02*
X16882619Y-13185743D01*
X16835000Y-13119076D02*
X16835000Y-13290505D01*
X16844524Y-13309552D01*
X16863571Y-13319076D01*
X16882619Y-13319076D01*
X17101667Y-13185743D02*
X17101667Y-13385743D01*
X17101667Y-13195267D02*
X17120714Y-13185743D01*
X17158810Y-13185743D01*
X17177857Y-13195267D01*
X17187381Y-13204790D01*
X17196905Y-13223838D01*
X17196905Y-13280981D01*
X17187381Y-13300028D01*
X17177857Y-13309552D01*
X17158810Y-13319076D01*
X17120714Y-13319076D01*
X17101667Y-13309552D01*
X17311190Y-13319076D02*
X17292143Y-13309552D01*
X17282619Y-13290505D01*
X17282619Y-13119076D01*
X17473095Y-13319076D02*
X17473095Y-13214314D01*
X17463571Y-13195267D01*
X17444524Y-13185743D01*
X17406429Y-13185743D01*
X17387381Y-13195267D01*
X17473095Y-13309552D02*
X17454048Y-13319076D01*
X17406429Y-13319076D01*
X17387381Y-13309552D01*
X17377857Y-13290505D01*
X17377857Y-13271457D01*
X17387381Y-13252409D01*
X17406429Y-13242886D01*
X17454048Y-13242886D01*
X17473095Y-13233362D01*
X17539762Y-13185743D02*
X17615952Y-13185743D01*
X17568333Y-13119076D02*
X17568333Y-13290505D01*
X17577857Y-13309552D01*
X17596905Y-13319076D01*
X17615952Y-13319076D01*
X17758810Y-13309552D02*
X17739762Y-13319076D01*
X17701667Y-13319076D01*
X17682619Y-13309552D01*
X17673095Y-13290505D01*
X17673095Y-13214314D01*
X17682619Y-13195267D01*
X17701667Y-13185743D01*
X17739762Y-13185743D01*
X17758810Y-13195267D01*
X17768333Y-13214314D01*
X17768333Y-13233362D01*
X17673095Y-13252409D01*
X17939762Y-13319076D02*
X17939762Y-13119076D01*
X17939762Y-13309552D02*
X17920714Y-13319076D01*
X17882619Y-13319076D01*
X17863571Y-13309552D01*
X17854048Y-13300028D01*
X17844524Y-13280981D01*
X17844524Y-13223838D01*
X17854048Y-13204790D01*
X17863571Y-13195267D01*
X17882619Y-13185743D01*
X17920714Y-13185743D01*
X17939762Y-13195267D01*
X18015952Y-13395267D02*
X18025476Y-13385743D01*
X18044524Y-13357171D01*
X18054048Y-13338124D01*
X18063571Y-13309552D01*
X18073095Y-13261933D01*
X18073095Y-13223838D01*
X18063571Y-13176219D01*
X18054048Y-13147648D01*
X18044524Y-13128600D01*
X18025476Y-13100028D01*
X18015952Y-13090505D01*
X11395711Y-13599311D02*
X11395711Y-13457889D01*
X11254289Y-13457889D01*
X11254289Y-13599311D01*
X11395711Y-13599311D01*
X11673095Y-13438124D02*
X11682619Y-13428600D01*
X11701667Y-13419076D01*
X11749286Y-13419076D01*
X11768333Y-13428600D01*
X11777857Y-13438124D01*
X11787381Y-13457171D01*
X11787381Y-13476219D01*
X11777857Y-13504790D01*
X11663571Y-13619076D01*
X11787381Y-13619076D01*
X11873095Y-13600028D02*
X11882619Y-13609552D01*
X11873095Y-13619076D01*
X11863571Y-13609552D01*
X11873095Y-13600028D01*
X11873095Y-13619076D01*
X11958809Y-13438124D02*
X11968333Y-13428600D01*
X11987381Y-13419076D01*
X12035000Y-13419076D01*
X12054048Y-13428600D01*
X12063571Y-13438124D01*
X12073095Y-13457171D01*
X12073095Y-13476219D01*
X12063571Y-13504790D01*
X11949286Y-13619076D01*
X12073095Y-13619076D01*
X12196905Y-13419076D02*
X12215952Y-13419076D01*
X12235000Y-13428600D01*
X12244524Y-13438124D01*
X12254048Y-13457171D01*
X12263571Y-13495267D01*
X12263571Y-13542886D01*
X12254048Y-13580981D01*
X12244524Y-13600028D01*
X12235000Y-13609552D01*
X12215952Y-13619076D01*
X12196905Y-13619076D01*
X12177857Y-13609552D01*
X12168333Y-13600028D01*
X12158809Y-13580981D01*
X12149286Y-13542886D01*
X12149286Y-13495267D01*
X12158809Y-13457171D01*
X12168333Y-13438124D01*
X12177857Y-13428600D01*
X12196905Y-13419076D01*
X12387381Y-13419076D02*
X12406428Y-13419076D01*
X12425476Y-13428600D01*
X12435000Y-13438124D01*
X12444524Y-13457171D01*
X12454048Y-13495267D01*
X12454048Y-13542886D01*
X12444524Y-13580981D01*
X12435000Y-13600028D01*
X12425476Y-13609552D01*
X12406428Y-13619076D01*
X12387381Y-13619076D01*
X12368333Y-13609552D01*
X12358809Y-13600028D01*
X12349286Y-13580981D01*
X12339762Y-13542886D01*
X12339762Y-13495267D01*
X12349286Y-13457171D01*
X12358809Y-13438124D01*
X12368333Y-13428600D01*
X12387381Y-13419076D01*
X12539762Y-13619076D02*
X12539762Y-13485743D01*
X12539762Y-13504790D02*
X12549286Y-13495267D01*
X12568333Y-13485743D01*
X12596905Y-13485743D01*
X12615952Y-13495267D01*
X12625476Y-13514314D01*
X12625476Y-13619076D01*
X12625476Y-13514314D02*
X12635000Y-13495267D01*
X12654048Y-13485743D01*
X12682619Y-13485743D01*
X12701667Y-13495267D01*
X12711190Y-13514314D01*
X12711190Y-13619076D01*
X12806428Y-13619076D02*
X12806428Y-13485743D01*
X12806428Y-13504790D02*
X12815952Y-13495267D01*
X12835000Y-13485743D01*
X12863571Y-13485743D01*
X12882619Y-13495267D01*
X12892143Y-13514314D01*
X12892143Y-13619076D01*
X12892143Y-13514314D02*
X12901667Y-13495267D01*
X12920714Y-13485743D01*
X12949286Y-13485743D01*
X12968333Y-13495267D01*
X12977857Y-13514314D01*
X12977857Y-13619076D01*
X13368333Y-13409552D02*
X13196905Y-13666695D01*
X13625476Y-13419076D02*
X13644524Y-13419076D01*
X13663571Y-13428600D01*
X13673095Y-13438124D01*
X13682619Y-13457171D01*
X13692143Y-13495267D01*
X13692143Y-13542886D01*
X13682619Y-13580981D01*
X13673095Y-13600028D01*
X13663571Y-13609552D01*
X13644524Y-13619076D01*
X13625476Y-13619076D01*
X13606428Y-13609552D01*
X13596905Y-13600028D01*
X13587381Y-13580981D01*
X13577857Y-13542886D01*
X13577857Y-13495267D01*
X13587381Y-13457171D01*
X13596905Y-13438124D01*
X13606428Y-13428600D01*
X13625476Y-13419076D01*
X13777857Y-13600028D02*
X13787381Y-13609552D01*
X13777857Y-13619076D01*
X13768333Y-13609552D01*
X13777857Y-13600028D01*
X13777857Y-13619076D01*
X13911190Y-13419076D02*
X13930238Y-13419076D01*
X13949286Y-13428600D01*
X13958809Y-13438124D01*
X13968333Y-13457171D01*
X13977857Y-13495267D01*
X13977857Y-13542886D01*
X13968333Y-13580981D01*
X13958809Y-13600028D01*
X13949286Y-13609552D01*
X13930238Y-13619076D01*
X13911190Y-13619076D01*
X13892143Y-13609552D01*
X13882619Y-13600028D01*
X13873095Y-13580981D01*
X13863571Y-13542886D01*
X13863571Y-13495267D01*
X13873095Y-13457171D01*
X13882619Y-13438124D01*
X13892143Y-13428600D01*
X13911190Y-13419076D01*
X14092143Y-13504790D02*
X14073095Y-13495267D01*
X14063571Y-13485743D01*
X14054048Y-13466695D01*
X14054048Y-13457171D01*
X14063571Y-13438124D01*
X14073095Y-13428600D01*
X14092143Y-13419076D01*
X14130238Y-13419076D01*
X14149286Y-13428600D01*
X14158809Y-13438124D01*
X14168333Y-13457171D01*
X14168333Y-13466695D01*
X14158809Y-13485743D01*
X14149286Y-13495267D01*
X14130238Y-13504790D01*
X14092143Y-13504790D01*
X14073095Y-13514314D01*
X14063571Y-13523838D01*
X14054048Y-13542886D01*
X14054048Y-13580981D01*
X14063571Y-13600028D01*
X14073095Y-13609552D01*
X14092143Y-13619076D01*
X14130238Y-13619076D01*
X14149286Y-13609552D01*
X14158809Y-13600028D01*
X14168333Y-13580981D01*
X14168333Y-13542886D01*
X14158809Y-13523838D01*
X14149286Y-13514314D01*
X14130238Y-13504790D01*
X14339762Y-13419076D02*
X14301667Y-13419076D01*
X14282619Y-13428600D01*
X14273095Y-13438124D01*
X14254048Y-13466695D01*
X14244524Y-13504790D01*
X14244524Y-13580981D01*
X14254048Y-13600028D01*
X14263571Y-13609552D01*
X14282619Y-13619076D01*
X14320714Y-13619076D01*
X14339762Y-13609552D01*
X14349286Y-13600028D01*
X14358809Y-13580981D01*
X14358809Y-13533362D01*
X14349286Y-13514314D01*
X14339762Y-13504790D01*
X14320714Y-13495267D01*
X14282619Y-13495267D01*
X14263571Y-13504790D01*
X14254048Y-13514314D01*
X14244524Y-13533362D01*
X14530238Y-13419076D02*
X14492143Y-13419076D01*
X14473095Y-13428600D01*
X14463571Y-13438124D01*
X14444524Y-13466695D01*
X14435000Y-13504790D01*
X14435000Y-13580981D01*
X14444524Y-13600028D01*
X14454048Y-13609552D01*
X14473095Y-13619076D01*
X14511190Y-13619076D01*
X14530238Y-13609552D01*
X14539762Y-13600028D01*
X14549286Y-13580981D01*
X14549286Y-13533362D01*
X14539762Y-13514314D01*
X14530238Y-13504790D01*
X14511190Y-13495267D01*
X14473095Y-13495267D01*
X14454048Y-13504790D01*
X14444524Y-13514314D01*
X14435000Y-13533362D01*
X14625476Y-13419076D02*
X14625476Y-13457171D01*
X14701667Y-13419076D02*
X14701667Y-13457171D01*
X14996905Y-13695267D02*
X14987381Y-13685743D01*
X14968333Y-13657171D01*
X14958809Y-13638124D01*
X14949286Y-13609552D01*
X14939762Y-13561933D01*
X14939762Y-13523838D01*
X14949286Y-13476219D01*
X14958809Y-13447648D01*
X14968333Y-13428600D01*
X14987381Y-13400028D01*
X14996905Y-13390505D01*
X15158809Y-13485743D02*
X15158809Y-13619076D01*
X15111190Y-13409552D02*
X15063571Y-13552409D01*
X15187381Y-13552409D01*
X15415952Y-13619076D02*
X15415952Y-13419076D01*
X15501667Y-13619076D02*
X15501667Y-13514314D01*
X15492143Y-13495267D01*
X15473095Y-13485743D01*
X15444524Y-13485743D01*
X15425476Y-13495267D01*
X15415952Y-13504790D01*
X15625476Y-13619076D02*
X15606428Y-13609552D01*
X15596905Y-13600028D01*
X15587381Y-13580981D01*
X15587381Y-13523838D01*
X15596905Y-13504790D01*
X15606428Y-13495267D01*
X15625476Y-13485743D01*
X15654048Y-13485743D01*
X15673095Y-13495267D01*
X15682619Y-13504790D01*
X15692143Y-13523838D01*
X15692143Y-13580981D01*
X15682619Y-13600028D01*
X15673095Y-13609552D01*
X15654048Y-13619076D01*
X15625476Y-13619076D01*
X15806428Y-13619076D02*
X15787381Y-13609552D01*
X15777857Y-13590505D01*
X15777857Y-13419076D01*
X15958809Y-13609552D02*
X15939762Y-13619076D01*
X15901667Y-13619076D01*
X15882619Y-13609552D01*
X15873095Y-13590505D01*
X15873095Y-13514314D01*
X15882619Y-13495267D01*
X15901667Y-13485743D01*
X15939762Y-13485743D01*
X15958809Y-13495267D01*
X15968333Y-13514314D01*
X15968333Y-13533362D01*
X15873095Y-13552409D01*
X16044524Y-13609552D02*
X16063571Y-13619076D01*
X16101667Y-13619076D01*
X16120714Y-13609552D01*
X16130238Y-13590505D01*
X16130238Y-13580981D01*
X16120714Y-13561933D01*
X16101667Y-13552409D01*
X16073095Y-13552409D01*
X16054048Y-13542886D01*
X16044524Y-13523838D01*
X16044524Y-13514314D01*
X16054048Y-13495267D01*
X16073095Y-13485743D01*
X16101667Y-13485743D01*
X16120714Y-13495267D01*
X16196905Y-13695267D02*
X16206428Y-13685743D01*
X16225476Y-13657171D01*
X16235000Y-13638124D01*
X16244524Y-13609552D01*
X16254048Y-13561933D01*
X16254048Y-13523838D01*
X16244524Y-13476219D01*
X16235000Y-13447648D01*
X16225476Y-13428600D01*
X16206428Y-13400028D01*
X16196905Y-13390505D01*
X16558809Y-13695267D02*
X16549286Y-13685743D01*
X16530238Y-13657171D01*
X16520714Y-13638124D01*
X16511190Y-13609552D01*
X16501667Y-13561933D01*
X16501667Y-13523838D01*
X16511190Y-13476219D01*
X16520714Y-13447648D01*
X16530238Y-13428600D01*
X16549286Y-13400028D01*
X16558809Y-13390505D01*
X16635000Y-13485743D02*
X16635000Y-13619076D01*
X16635000Y-13504790D02*
X16644524Y-13495267D01*
X16663571Y-13485743D01*
X16692143Y-13485743D01*
X16711190Y-13495267D01*
X16720714Y-13514314D01*
X16720714Y-13619076D01*
X16844524Y-13619076D02*
X16825476Y-13609552D01*
X16815952Y-13600028D01*
X16806429Y-13580981D01*
X16806429Y-13523838D01*
X16815952Y-13504790D01*
X16825476Y-13495267D01*
X16844524Y-13485743D01*
X16873095Y-13485743D01*
X16892143Y-13495267D01*
X16901667Y-13504790D01*
X16911190Y-13523838D01*
X16911190Y-13580981D01*
X16901667Y-13600028D01*
X16892143Y-13609552D01*
X16873095Y-13619076D01*
X16844524Y-13619076D01*
X16968333Y-13485743D02*
X17044524Y-13485743D01*
X16996905Y-13419076D02*
X16996905Y-13590505D01*
X17006429Y-13609552D01*
X17025476Y-13619076D01*
X17044524Y-13619076D01*
X17263571Y-13485743D02*
X17263571Y-13685743D01*
X17263571Y-13495267D02*
X17282619Y-13485743D01*
X17320714Y-13485743D01*
X17339762Y-13495267D01*
X17349286Y-13504790D01*
X17358810Y-13523838D01*
X17358810Y-13580981D01*
X17349286Y-13600028D01*
X17339762Y-13609552D01*
X17320714Y-13619076D01*
X17282619Y-13619076D01*
X17263571Y-13609552D01*
X17473095Y-13619076D02*
X17454048Y-13609552D01*
X17444524Y-13590505D01*
X17444524Y-13419076D01*
X17635000Y-13619076D02*
X17635000Y-13514314D01*
X17625476Y-13495267D01*
X17606429Y-13485743D01*
X17568333Y-13485743D01*
X17549286Y-13495267D01*
X17635000Y-13609552D02*
X17615952Y-13619076D01*
X17568333Y-13619076D01*
X17549286Y-13609552D01*
X17539762Y-13590505D01*
X17539762Y-13571457D01*
X17549286Y-13552409D01*
X17568333Y-13542886D01*
X17615952Y-13542886D01*
X17635000Y-13533362D01*
X17701667Y-13485743D02*
X17777857Y-13485743D01*
X17730238Y-13419076D02*
X17730238Y-13590505D01*
X17739762Y-13609552D01*
X17758810Y-13619076D01*
X17777857Y-13619076D01*
X17920714Y-13609552D02*
X17901667Y-13619076D01*
X17863571Y-13619076D01*
X17844524Y-13609552D01*
X17835000Y-13590505D01*
X17835000Y-13514314D01*
X17844524Y-13495267D01*
X17863571Y-13485743D01*
X17901667Y-13485743D01*
X17920714Y-13495267D01*
X17930238Y-13514314D01*
X17930238Y-13533362D01*
X17835000Y-13552409D01*
X18101667Y-13619076D02*
X18101667Y-13419076D01*
X18101667Y-13609552D02*
X18082619Y-13619076D01*
X18044524Y-13619076D01*
X18025476Y-13609552D01*
X18015952Y-13600028D01*
X18006429Y-13580981D01*
X18006429Y-13523838D01*
X18015952Y-13504790D01*
X18025476Y-13495267D01*
X18044524Y-13485743D01*
X18082619Y-13485743D01*
X18101667Y-13495267D01*
X18177857Y-13695267D02*
X18187381Y-13685743D01*
X18206429Y-13657171D01*
X18215952Y-13638124D01*
X18225476Y-13609552D01*
X18235000Y-13561933D01*
X18235000Y-13523838D01*
X18225476Y-13476219D01*
X18215952Y-13447648D01*
X18206429Y-13428600D01*
X18187381Y-13400028D01*
X18177857Y-13390505D01*
X11325000Y-13948600D02*
X11425000Y-13848600D01*
X11325000Y-13748600D01*
X11225000Y-13848600D01*
X11325000Y-13948600D01*
X11663571Y-13739076D02*
X11787381Y-13739076D01*
X11720714Y-13815267D01*
X11749286Y-13815267D01*
X11768333Y-13824790D01*
X11777857Y-13834314D01*
X11787381Y-13853362D01*
X11787381Y-13900981D01*
X11777857Y-13920028D01*
X11768333Y-13929552D01*
X11749286Y-13939076D01*
X11692143Y-13939076D01*
X11673095Y-13929552D01*
X11663571Y-13920028D01*
X11873095Y-13920028D02*
X11882619Y-13929552D01*
X11873095Y-13939076D01*
X11863571Y-13929552D01*
X11873095Y-13920028D01*
X11873095Y-13939076D01*
X11958809Y-13758124D02*
X11968333Y-13748600D01*
X11987381Y-13739076D01*
X12035000Y-13739076D01*
X12054048Y-13748600D01*
X12063571Y-13758124D01*
X12073095Y-13777171D01*
X12073095Y-13796219D01*
X12063571Y-13824790D01*
X11949286Y-13939076D01*
X12073095Y-13939076D01*
X12196905Y-13739076D02*
X12215952Y-13739076D01*
X12235000Y-13748600D01*
X12244524Y-13758124D01*
X12254048Y-13777171D01*
X12263571Y-13815267D01*
X12263571Y-13862886D01*
X12254048Y-13900981D01*
X12244524Y-13920028D01*
X12235000Y-13929552D01*
X12215952Y-13939076D01*
X12196905Y-13939076D01*
X12177857Y-13929552D01*
X12168333Y-13920028D01*
X12158809Y-13900981D01*
X12149286Y-13862886D01*
X12149286Y-13815267D01*
X12158809Y-13777171D01*
X12168333Y-13758124D01*
X12177857Y-13748600D01*
X12196905Y-13739076D01*
X12387381Y-13739076D02*
X12406428Y-13739076D01*
X12425476Y-13748600D01*
X12435000Y-13758124D01*
X12444524Y-13777171D01*
X12454048Y-13815267D01*
X12454048Y-13862886D01*
X12444524Y-13900981D01*
X12435000Y-13920028D01*
X12425476Y-13929552D01*
X12406428Y-13939076D01*
X12387381Y-13939076D01*
X12368333Y-13929552D01*
X12358809Y-13920028D01*
X12349286Y-13900981D01*
X12339762Y-13862886D01*
X12339762Y-13815267D01*
X12349286Y-13777171D01*
X12358809Y-13758124D01*
X12368333Y-13748600D01*
X12387381Y-13739076D01*
X12539762Y-13939076D02*
X12539762Y-13805743D01*
X12539762Y-13824790D02*
X12549286Y-13815267D01*
X12568333Y-13805743D01*
X12596905Y-13805743D01*
X12615952Y-13815267D01*
X12625476Y-13834314D01*
X12625476Y-13939076D01*
X12625476Y-13834314D02*
X12635000Y-13815267D01*
X12654048Y-13805743D01*
X12682619Y-13805743D01*
X12701667Y-13815267D01*
X12711190Y-13834314D01*
X12711190Y-13939076D01*
X12806428Y-13939076D02*
X12806428Y-13805743D01*
X12806428Y-13824790D02*
X12815952Y-13815267D01*
X12835000Y-13805743D01*
X12863571Y-13805743D01*
X12882619Y-13815267D01*
X12892143Y-13834314D01*
X12892143Y-13939076D01*
X12892143Y-13834314D02*
X12901667Y-13815267D01*
X12920714Y-13805743D01*
X12949286Y-13805743D01*
X12968333Y-13815267D01*
X12977857Y-13834314D01*
X12977857Y-13939076D01*
X13368333Y-13729552D02*
X13196905Y-13986695D01*
X13625476Y-13739076D02*
X13644524Y-13739076D01*
X13663571Y-13748600D01*
X13673095Y-13758124D01*
X13682619Y-13777171D01*
X13692143Y-13815267D01*
X13692143Y-13862886D01*
X13682619Y-13900981D01*
X13673095Y-13920028D01*
X13663571Y-13929552D01*
X13644524Y-13939076D01*
X13625476Y-13939076D01*
X13606428Y-13929552D01*
X13596905Y-13920028D01*
X13587381Y-13900981D01*
X13577857Y-13862886D01*
X13577857Y-13815267D01*
X13587381Y-13777171D01*
X13596905Y-13758124D01*
X13606428Y-13748600D01*
X13625476Y-13739076D01*
X13777857Y-13920028D02*
X13787381Y-13929552D01*
X13777857Y-13939076D01*
X13768333Y-13929552D01*
X13777857Y-13920028D01*
X13777857Y-13939076D01*
X13977857Y-13939076D02*
X13863571Y-13939076D01*
X13920714Y-13939076D02*
X13920714Y-13739076D01*
X13901667Y-13767648D01*
X13882619Y-13786695D01*
X13863571Y-13796219D01*
X14054048Y-13758124D02*
X14063571Y-13748600D01*
X14082619Y-13739076D01*
X14130238Y-13739076D01*
X14149286Y-13748600D01*
X14158809Y-13758124D01*
X14168333Y-13777171D01*
X14168333Y-13796219D01*
X14158809Y-13824790D01*
X14044524Y-13939076D01*
X14168333Y-13939076D01*
X14339762Y-13739076D02*
X14301667Y-13739076D01*
X14282619Y-13748600D01*
X14273095Y-13758124D01*
X14254048Y-13786695D01*
X14244524Y-13824790D01*
X14244524Y-13900981D01*
X14254048Y-13920028D01*
X14263571Y-13929552D01*
X14282619Y-13939076D01*
X14320714Y-13939076D01*
X14339762Y-13929552D01*
X14349286Y-13920028D01*
X14358809Y-13900981D01*
X14358809Y-13853362D01*
X14349286Y-13834314D01*
X14339762Y-13824790D01*
X14320714Y-13815267D01*
X14282619Y-13815267D01*
X14263571Y-13824790D01*
X14254048Y-13834314D01*
X14244524Y-13853362D01*
X14482619Y-13739076D02*
X14501667Y-13739076D01*
X14520714Y-13748600D01*
X14530238Y-13758124D01*
X14539762Y-13777171D01*
X14549286Y-13815267D01*
X14549286Y-13862886D01*
X14539762Y-13900981D01*
X14530238Y-13920028D01*
X14520714Y-13929552D01*
X14501667Y-13939076D01*
X14482619Y-13939076D01*
X14463571Y-13929552D01*
X14454048Y-13920028D01*
X14444524Y-13900981D01*
X14435000Y-13862886D01*
X14435000Y-13815267D01*
X14444524Y-13777171D01*
X14454048Y-13758124D01*
X14463571Y-13748600D01*
X14482619Y-13739076D01*
X14625476Y-13739076D02*
X14625476Y-13777171D01*
X14701667Y-13739076D02*
X14701667Y-13777171D01*
X14996905Y-14015267D02*
X14987381Y-14005743D01*
X14968333Y-13977171D01*
X14958809Y-13958124D01*
X14949286Y-13929552D01*
X14939762Y-13881933D01*
X14939762Y-13843838D01*
X14949286Y-13796219D01*
X14958809Y-13767648D01*
X14968333Y-13748600D01*
X14987381Y-13720028D01*
X14996905Y-13710505D01*
X15158809Y-13739076D02*
X15120714Y-13739076D01*
X15101667Y-13748600D01*
X15092143Y-13758124D01*
X15073095Y-13786695D01*
X15063571Y-13824790D01*
X15063571Y-13900981D01*
X15073095Y-13920028D01*
X15082619Y-13929552D01*
X15101667Y-13939076D01*
X15139762Y-13939076D01*
X15158809Y-13929552D01*
X15168333Y-13920028D01*
X15177857Y-13900981D01*
X15177857Y-13853362D01*
X15168333Y-13834314D01*
X15158809Y-13824790D01*
X15139762Y-13815267D01*
X15101667Y-13815267D01*
X15082619Y-13824790D01*
X15073095Y-13834314D01*
X15063571Y-13853362D01*
X15415952Y-13939076D02*
X15415952Y-13739076D01*
X15501667Y-13939076D02*
X15501667Y-13834314D01*
X15492143Y-13815267D01*
X15473095Y-13805743D01*
X15444524Y-13805743D01*
X15425476Y-13815267D01*
X15415952Y-13824790D01*
X15625476Y-13939076D02*
X15606428Y-13929552D01*
X15596905Y-13920028D01*
X15587381Y-13900981D01*
X15587381Y-13843838D01*
X15596905Y-13824790D01*
X15606428Y-13815267D01*
X15625476Y-13805743D01*
X15654048Y-13805743D01*
X15673095Y-13815267D01*
X15682619Y-13824790D01*
X15692143Y-13843838D01*
X15692143Y-13900981D01*
X15682619Y-13920028D01*
X15673095Y-13929552D01*
X15654048Y-13939076D01*
X15625476Y-13939076D01*
X15806428Y-13939076D02*
X15787381Y-13929552D01*
X15777857Y-13910505D01*
X15777857Y-13739076D01*
X15958809Y-13929552D02*
X15939762Y-13939076D01*
X15901667Y-13939076D01*
X15882619Y-13929552D01*
X15873095Y-13910505D01*
X15873095Y-13834314D01*
X15882619Y-13815267D01*
X15901667Y-13805743D01*
X15939762Y-13805743D01*
X15958809Y-13815267D01*
X15968333Y-13834314D01*
X15968333Y-13853362D01*
X15873095Y-13872409D01*
X16044524Y-13929552D02*
X16063571Y-13939076D01*
X16101667Y-13939076D01*
X16120714Y-13929552D01*
X16130238Y-13910505D01*
X16130238Y-13900981D01*
X16120714Y-13881933D01*
X16101667Y-13872409D01*
X16073095Y-13872409D01*
X16054048Y-13862886D01*
X16044524Y-13843838D01*
X16044524Y-13834314D01*
X16054048Y-13815267D01*
X16073095Y-13805743D01*
X16101667Y-13805743D01*
X16120714Y-13815267D01*
X16196905Y-14015267D02*
X16206428Y-14005743D01*
X16225476Y-13977171D01*
X16235000Y-13958124D01*
X16244524Y-13929552D01*
X16254048Y-13881933D01*
X16254048Y-13843838D01*
X16244524Y-13796219D01*
X16235000Y-13767648D01*
X16225476Y-13748600D01*
X16206428Y-13720028D01*
X16196905Y-13710505D01*
X16558809Y-14015267D02*
X16549286Y-14005743D01*
X16530238Y-13977171D01*
X16520714Y-13958124D01*
X16511190Y-13929552D01*
X16501667Y-13881933D01*
X16501667Y-13843838D01*
X16511190Y-13796219D01*
X16520714Y-13767648D01*
X16530238Y-13748600D01*
X16549286Y-13720028D01*
X16558809Y-13710505D01*
X16635000Y-13805743D02*
X16635000Y-13939076D01*
X16635000Y-13824790D02*
X16644524Y-13815267D01*
X16663571Y-13805743D01*
X16692143Y-13805743D01*
X16711190Y-13815267D01*
X16720714Y-13834314D01*
X16720714Y-13939076D01*
X16844524Y-13939076D02*
X16825476Y-13929552D01*
X16815952Y-13920028D01*
X16806429Y-13900981D01*
X16806429Y-13843838D01*
X16815952Y-13824790D01*
X16825476Y-13815267D01*
X16844524Y-13805743D01*
X16873095Y-13805743D01*
X16892143Y-13815267D01*
X16901667Y-13824790D01*
X16911190Y-13843838D01*
X16911190Y-13900981D01*
X16901667Y-13920028D01*
X16892143Y-13929552D01*
X16873095Y-13939076D01*
X16844524Y-13939076D01*
X16968333Y-13805743D02*
X17044524Y-13805743D01*
X16996905Y-13739076D02*
X16996905Y-13910505D01*
X17006429Y-13929552D01*
X17025476Y-13939076D01*
X17044524Y-13939076D01*
X17263571Y-13805743D02*
X17263571Y-14005743D01*
X17263571Y-13815267D02*
X17282619Y-13805743D01*
X17320714Y-13805743D01*
X17339762Y-13815267D01*
X17349286Y-13824790D01*
X17358810Y-13843838D01*
X17358810Y-13900981D01*
X17349286Y-13920028D01*
X17339762Y-13929552D01*
X17320714Y-13939076D01*
X17282619Y-13939076D01*
X17263571Y-13929552D01*
X17473095Y-13939076D02*
X17454048Y-13929552D01*
X17444524Y-13910505D01*
X17444524Y-13739076D01*
X17635000Y-13939076D02*
X17635000Y-13834314D01*
X17625476Y-13815267D01*
X17606429Y-13805743D01*
X17568333Y-13805743D01*
X17549286Y-13815267D01*
X17635000Y-13929552D02*
X17615952Y-13939076D01*
X17568333Y-13939076D01*
X17549286Y-13929552D01*
X17539762Y-13910505D01*
X17539762Y-13891457D01*
X17549286Y-13872409D01*
X17568333Y-13862886D01*
X17615952Y-13862886D01*
X17635000Y-13853362D01*
X17701667Y-13805743D02*
X17777857Y-13805743D01*
X17730238Y-13739076D02*
X17730238Y-13910505D01*
X17739762Y-13929552D01*
X17758810Y-13939076D01*
X17777857Y-13939076D01*
X17920714Y-13929552D02*
X17901667Y-13939076D01*
X17863571Y-13939076D01*
X17844524Y-13929552D01*
X17835000Y-13910505D01*
X17835000Y-13834314D01*
X17844524Y-13815267D01*
X17863571Y-13805743D01*
X17901667Y-13805743D01*
X17920714Y-13815267D01*
X17930238Y-13834314D01*
X17930238Y-13853362D01*
X17835000Y-13872409D01*
X18101667Y-13939076D02*
X18101667Y-13739076D01*
X18101667Y-13929552D02*
X18082619Y-13939076D01*
X18044524Y-13939076D01*
X18025476Y-13929552D01*
X18015952Y-13920028D01*
X18006429Y-13900981D01*
X18006429Y-13843838D01*
X18015952Y-13824790D01*
X18025476Y-13815267D01*
X18044524Y-13805743D01*
X18082619Y-13805743D01*
X18101667Y-13815267D01*
X18177857Y-14015267D02*
X18187381Y-14005743D01*
X18206429Y-13977171D01*
X18215952Y-13958124D01*
X18225476Y-13929552D01*
X18235000Y-13881933D01*
X18235000Y-13843838D01*
X18225476Y-13796219D01*
X18215952Y-13767648D01*
X18206429Y-13748600D01*
X18187381Y-13720028D01*
X18177857Y-13710505D01*
X11225000Y-14068600D02*
X11425000Y-14268600D01*
X11425000Y-14068600D02*
X11225000Y-14268600D01*
X11425000Y-14168600D02*
G75*
G03*
X11425000Y-14168600I-100000J0D01*
G01*
X11663571Y-14059076D02*
X11787381Y-14059076D01*
X11720714Y-14135267D01*
X11749286Y-14135267D01*
X11768333Y-14144790D01*
X11777857Y-14154314D01*
X11787381Y-14173362D01*
X11787381Y-14220981D01*
X11777857Y-14240028D01*
X11768333Y-14249552D01*
X11749286Y-14259076D01*
X11692143Y-14259076D01*
X11673095Y-14249552D01*
X11663571Y-14240028D01*
X11873095Y-14240028D02*
X11882619Y-14249552D01*
X11873095Y-14259076D01*
X11863571Y-14249552D01*
X11873095Y-14240028D01*
X11873095Y-14259076D01*
X12054048Y-14125743D02*
X12054048Y-14259076D01*
X12006428Y-14049552D02*
X11958809Y-14192409D01*
X12082619Y-14192409D01*
X12254048Y-14059076D02*
X12158809Y-14059076D01*
X12149286Y-14154314D01*
X12158809Y-14144790D01*
X12177857Y-14135267D01*
X12225476Y-14135267D01*
X12244524Y-14144790D01*
X12254048Y-14154314D01*
X12263571Y-14173362D01*
X12263571Y-14220981D01*
X12254048Y-14240028D01*
X12244524Y-14249552D01*
X12225476Y-14259076D01*
X12177857Y-14259076D01*
X12158809Y-14249552D01*
X12149286Y-14240028D01*
X12387381Y-14059076D02*
X12406428Y-14059076D01*
X12425476Y-14068600D01*
X12435000Y-14078124D01*
X12444524Y-14097171D01*
X12454048Y-14135267D01*
X12454048Y-14182886D01*
X12444524Y-14220981D01*
X12435000Y-14240028D01*
X12425476Y-14249552D01*
X12406428Y-14259076D01*
X12387381Y-14259076D01*
X12368333Y-14249552D01*
X12358809Y-14240028D01*
X12349286Y-14220981D01*
X12339762Y-14182886D01*
X12339762Y-14135267D01*
X12349286Y-14097171D01*
X12358809Y-14078124D01*
X12368333Y-14068600D01*
X12387381Y-14059076D01*
X12539762Y-14259076D02*
X12539762Y-14125743D01*
X12539762Y-14144790D02*
X12549286Y-14135267D01*
X12568333Y-14125743D01*
X12596905Y-14125743D01*
X12615952Y-14135267D01*
X12625476Y-14154314D01*
X12625476Y-14259076D01*
X12625476Y-14154314D02*
X12635000Y-14135267D01*
X12654048Y-14125743D01*
X12682619Y-14125743D01*
X12701667Y-14135267D01*
X12711190Y-14154314D01*
X12711190Y-14259076D01*
X12806428Y-14259076D02*
X12806428Y-14125743D01*
X12806428Y-14144790D02*
X12815952Y-14135267D01*
X12835000Y-14125743D01*
X12863571Y-14125743D01*
X12882619Y-14135267D01*
X12892143Y-14154314D01*
X12892143Y-14259076D01*
X12892143Y-14154314D02*
X12901667Y-14135267D01*
X12920714Y-14125743D01*
X12949286Y-14125743D01*
X12968333Y-14135267D01*
X12977857Y-14154314D01*
X12977857Y-14259076D01*
X13368333Y-14049552D02*
X13196905Y-14306695D01*
X13625476Y-14059076D02*
X13644524Y-14059076D01*
X13663571Y-14068600D01*
X13673095Y-14078124D01*
X13682619Y-14097171D01*
X13692143Y-14135267D01*
X13692143Y-14182886D01*
X13682619Y-14220981D01*
X13673095Y-14240028D01*
X13663571Y-14249552D01*
X13644524Y-14259076D01*
X13625476Y-14259076D01*
X13606428Y-14249552D01*
X13596905Y-14240028D01*
X13587381Y-14220981D01*
X13577857Y-14182886D01*
X13577857Y-14135267D01*
X13587381Y-14097171D01*
X13596905Y-14078124D01*
X13606428Y-14068600D01*
X13625476Y-14059076D01*
X13777857Y-14240028D02*
X13787381Y-14249552D01*
X13777857Y-14259076D01*
X13768333Y-14249552D01*
X13777857Y-14240028D01*
X13777857Y-14259076D01*
X13977857Y-14259076D02*
X13863571Y-14259076D01*
X13920714Y-14259076D02*
X13920714Y-14059076D01*
X13901667Y-14087648D01*
X13882619Y-14106695D01*
X13863571Y-14116219D01*
X14044524Y-14059076D02*
X14168333Y-14059076D01*
X14101667Y-14135267D01*
X14130238Y-14135267D01*
X14149286Y-14144790D01*
X14158809Y-14154314D01*
X14168333Y-14173362D01*
X14168333Y-14220981D01*
X14158809Y-14240028D01*
X14149286Y-14249552D01*
X14130238Y-14259076D01*
X14073095Y-14259076D01*
X14054048Y-14249552D01*
X14044524Y-14240028D01*
X14349286Y-14059076D02*
X14254048Y-14059076D01*
X14244524Y-14154314D01*
X14254048Y-14144790D01*
X14273095Y-14135267D01*
X14320714Y-14135267D01*
X14339762Y-14144790D01*
X14349286Y-14154314D01*
X14358809Y-14173362D01*
X14358809Y-14220981D01*
X14349286Y-14240028D01*
X14339762Y-14249552D01*
X14320714Y-14259076D01*
X14273095Y-14259076D01*
X14254048Y-14249552D01*
X14244524Y-14240028D01*
X14473095Y-14144790D02*
X14454048Y-14135267D01*
X14444524Y-14125743D01*
X14435000Y-14106695D01*
X14435000Y-14097171D01*
X14444524Y-14078124D01*
X14454048Y-14068600D01*
X14473095Y-14059076D01*
X14511190Y-14059076D01*
X14530238Y-14068600D01*
X14539762Y-14078124D01*
X14549286Y-14097171D01*
X14549286Y-14106695D01*
X14539762Y-14125743D01*
X14530238Y-14135267D01*
X14511190Y-14144790D01*
X14473095Y-14144790D01*
X14454048Y-14154314D01*
X14444524Y-14163838D01*
X14435000Y-14182886D01*
X14435000Y-14220981D01*
X14444524Y-14240028D01*
X14454048Y-14249552D01*
X14473095Y-14259076D01*
X14511190Y-14259076D01*
X14530238Y-14249552D01*
X14539762Y-14240028D01*
X14549286Y-14220981D01*
X14549286Y-14182886D01*
X14539762Y-14163838D01*
X14530238Y-14154314D01*
X14511190Y-14144790D01*
X14625476Y-14059076D02*
X14625476Y-14097171D01*
X14701667Y-14059076D02*
X14701667Y-14097171D01*
X14996905Y-14335267D02*
X14987381Y-14325743D01*
X14968333Y-14297171D01*
X14958809Y-14278124D01*
X14949286Y-14249552D01*
X14939762Y-14201933D01*
X14939762Y-14163838D01*
X14949286Y-14116219D01*
X14958809Y-14087648D01*
X14968333Y-14068600D01*
X14987381Y-14040028D01*
X14996905Y-14030505D01*
X15063571Y-14078124D02*
X15073095Y-14068600D01*
X15092143Y-14059076D01*
X15139762Y-14059076D01*
X15158809Y-14068600D01*
X15168333Y-14078124D01*
X15177857Y-14097171D01*
X15177857Y-14116219D01*
X15168333Y-14144790D01*
X15054048Y-14259076D01*
X15177857Y-14259076D01*
X15415952Y-14259076D02*
X15415952Y-14059076D01*
X15501667Y-14259076D02*
X15501667Y-14154314D01*
X15492143Y-14135267D01*
X15473095Y-14125743D01*
X15444524Y-14125743D01*
X15425476Y-14135267D01*
X15415952Y-14144790D01*
X15625476Y-14259076D02*
X15606428Y-14249552D01*
X15596905Y-14240028D01*
X15587381Y-14220981D01*
X15587381Y-14163838D01*
X15596905Y-14144790D01*
X15606428Y-14135267D01*
X15625476Y-14125743D01*
X15654048Y-14125743D01*
X15673095Y-14135267D01*
X15682619Y-14144790D01*
X15692143Y-14163838D01*
X15692143Y-14220981D01*
X15682619Y-14240028D01*
X15673095Y-14249552D01*
X15654048Y-14259076D01*
X15625476Y-14259076D01*
X15806428Y-14259076D02*
X15787381Y-14249552D01*
X15777857Y-14230505D01*
X15777857Y-14059076D01*
X15958809Y-14249552D02*
X15939762Y-14259076D01*
X15901667Y-14259076D01*
X15882619Y-14249552D01*
X15873095Y-14230505D01*
X15873095Y-14154314D01*
X15882619Y-14135267D01*
X15901667Y-14125743D01*
X15939762Y-14125743D01*
X15958809Y-14135267D01*
X15968333Y-14154314D01*
X15968333Y-14173362D01*
X15873095Y-14192409D01*
X16044524Y-14249552D02*
X16063571Y-14259076D01*
X16101667Y-14259076D01*
X16120714Y-14249552D01*
X16130238Y-14230505D01*
X16130238Y-14220981D01*
X16120714Y-14201933D01*
X16101667Y-14192409D01*
X16073095Y-14192409D01*
X16054048Y-14182886D01*
X16044524Y-14163838D01*
X16044524Y-14154314D01*
X16054048Y-14135267D01*
X16073095Y-14125743D01*
X16101667Y-14125743D01*
X16120714Y-14135267D01*
X16196905Y-14335267D02*
X16206428Y-14325743D01*
X16225476Y-14297171D01*
X16235000Y-14278124D01*
X16244524Y-14249552D01*
X16254048Y-14201933D01*
X16254048Y-14163838D01*
X16244524Y-14116219D01*
X16235000Y-14087648D01*
X16225476Y-14068600D01*
X16206428Y-14040028D01*
X16196905Y-14030505D01*
X16558809Y-14335267D02*
X16549286Y-14325743D01*
X16530238Y-14297171D01*
X16520714Y-14278124D01*
X16511190Y-14249552D01*
X16501667Y-14201933D01*
X16501667Y-14163838D01*
X16511190Y-14116219D01*
X16520714Y-14087648D01*
X16530238Y-14068600D01*
X16549286Y-14040028D01*
X16558809Y-14030505D01*
X16635000Y-14125743D02*
X16635000Y-14259076D01*
X16635000Y-14144790D02*
X16644524Y-14135267D01*
X16663571Y-14125743D01*
X16692143Y-14125743D01*
X16711190Y-14135267D01*
X16720714Y-14154314D01*
X16720714Y-14259076D01*
X16844524Y-14259076D02*
X16825476Y-14249552D01*
X16815952Y-14240028D01*
X16806429Y-14220981D01*
X16806429Y-14163838D01*
X16815952Y-14144790D01*
X16825476Y-14135267D01*
X16844524Y-14125743D01*
X16873095Y-14125743D01*
X16892143Y-14135267D01*
X16901667Y-14144790D01*
X16911190Y-14163838D01*
X16911190Y-14220981D01*
X16901667Y-14240028D01*
X16892143Y-14249552D01*
X16873095Y-14259076D01*
X16844524Y-14259076D01*
X16968333Y-14125743D02*
X17044524Y-14125743D01*
X16996905Y-14059076D02*
X16996905Y-14230505D01*
X17006429Y-14249552D01*
X17025476Y-14259076D01*
X17044524Y-14259076D01*
X17263571Y-14125743D02*
X17263571Y-14325743D01*
X17263571Y-14135267D02*
X17282619Y-14125743D01*
X17320714Y-14125743D01*
X17339762Y-14135267D01*
X17349286Y-14144790D01*
X17358810Y-14163838D01*
X17358810Y-14220981D01*
X17349286Y-14240028D01*
X17339762Y-14249552D01*
X17320714Y-14259076D01*
X17282619Y-14259076D01*
X17263571Y-14249552D01*
X17473095Y-14259076D02*
X17454048Y-14249552D01*
X17444524Y-14230505D01*
X17444524Y-14059076D01*
X17635000Y-14259076D02*
X17635000Y-14154314D01*
X17625476Y-14135267D01*
X17606429Y-14125743D01*
X17568333Y-14125743D01*
X17549286Y-14135267D01*
X17635000Y-14249552D02*
X17615952Y-14259076D01*
X17568333Y-14259076D01*
X17549286Y-14249552D01*
X17539762Y-14230505D01*
X17539762Y-14211457D01*
X17549286Y-14192409D01*
X17568333Y-14182886D01*
X17615952Y-14182886D01*
X17635000Y-14173362D01*
X17701667Y-14125743D02*
X17777857Y-14125743D01*
X17730238Y-14059076D02*
X17730238Y-14230505D01*
X17739762Y-14249552D01*
X17758810Y-14259076D01*
X17777857Y-14259076D01*
X17920714Y-14249552D02*
X17901667Y-14259076D01*
X17863571Y-14259076D01*
X17844524Y-14249552D01*
X17835000Y-14230505D01*
X17835000Y-14154314D01*
X17844524Y-14135267D01*
X17863571Y-14125743D01*
X17901667Y-14125743D01*
X17920714Y-14135267D01*
X17930238Y-14154314D01*
X17930238Y-14173362D01*
X17835000Y-14192409D01*
X18101667Y-14259076D02*
X18101667Y-14059076D01*
X18101667Y-14249552D02*
X18082619Y-14259076D01*
X18044524Y-14259076D01*
X18025476Y-14249552D01*
X18015952Y-14240028D01*
X18006429Y-14220981D01*
X18006429Y-14163838D01*
X18015952Y-14144790D01*
X18025476Y-14135267D01*
X18044524Y-14125743D01*
X18082619Y-14125743D01*
X18101667Y-14135267D01*
X18177857Y-14335267D02*
X18187381Y-14325743D01*
X18206429Y-14297171D01*
X18215952Y-14278124D01*
X18225476Y-14249552D01*
X18235000Y-14201933D01*
X18235000Y-14163838D01*
X18225476Y-14116219D01*
X18215952Y-14087648D01*
X18206429Y-14068600D01*
X18187381Y-14040028D01*
X18177857Y-14030505D01*
M02*
