%TF.GenerationSoftware,KiCad,Pcbnew,(6.0.8)*%
%TF.CreationDate,2023-04-21T18:27:59-07:00*%
%TF.ProjectId,Capstone_PCB,43617073-746f-46e6-955f-5043422e6b69,rev?*%
%TF.SameCoordinates,Original*%
%TF.FileFunction,Soldermask,Bot*%
%TF.FilePolarity,Negative*%
%FSLAX46Y46*%
G04 Gerber Fmt 4.6, Leading zero omitted, Abs format (unit mm)*
G04 Created by KiCad (PCBNEW (6.0.8)) date 2023-04-21 18:27:59*
%MOMM*%
%LPD*%
G01*
G04 APERTURE LIST*
%ADD10C,3.650000*%
%ADD11R,1.500000X1.500000*%
%ADD12C,1.500000*%
%ADD13C,1.879600*%
%ADD14C,3.200000*%
%ADD15C,1.727200*%
%ADD16C,1.800000*%
%ADD17C,1.600000*%
%ADD18C,2.200000*%
%ADD19R,1.727200X1.727200*%
%ADD20C,0.650000*%
%ADD21O,2.101600X1.101600*%
G04 APERTURE END LIST*
D10*
%TO.C,J1*%
X160012000Y-112522000D03*
X160012000Y-101092000D03*
D11*
X153662000Y-111252000D03*
D12*
X151122000Y-109982000D03*
X153662000Y-108712000D03*
X151122000Y-107442000D03*
X153662000Y-106172000D03*
X151122000Y-104902000D03*
X153662000Y-103632000D03*
X151122000Y-102362000D03*
%TD*%
D13*
%TO.C,*%
X167149800Y-66229600D03*
%TD*%
D14*
%TO.C,REF\u002A\u002A*%
X116840000Y-45720000D03*
X116840000Y-45720000D03*
%TD*%
%TO.C,REF\u002A\u002A*%
X116840000Y-117856000D03*
X116840000Y-117856000D03*
%TD*%
%TO.C,REF\u002A\u002A*%
X175260000Y-45720000D03*
%TD*%
D15*
%TO.C,*%
X132400000Y-102322000D03*
%TD*%
%TO.C,*%
X132400000Y-72416730D03*
%TD*%
D16*
%TO.C,J2*%
X171245000Y-54825000D03*
D17*
X175745000Y-54825000D03*
%TD*%
D13*
%TO.C,*%
X164228800Y-66178800D03*
%TD*%
D18*
%TO.C,XA1*%
X139076000Y-107081000D03*
X139076000Y-50081000D03*
X118576000Y-107081000D03*
X118576000Y-50081000D03*
D15*
X138986000Y-75045800D03*
X138986000Y-69965800D03*
X118666000Y-72505800D03*
X118666000Y-75045800D03*
X118666000Y-77585800D03*
X118666000Y-80125800D03*
X118666000Y-82665800D03*
X118666000Y-85205800D03*
X118666000Y-87745800D03*
X118666000Y-69965800D03*
X118666000Y-90285800D03*
X118666000Y-92825800D03*
X118666000Y-95365800D03*
X118666000Y-97905800D03*
X118666000Y-100445800D03*
X118666000Y-102985800D03*
X138986000Y-102985800D03*
X138986000Y-100445800D03*
X138986000Y-97905800D03*
X138986000Y-95365800D03*
X138986000Y-92825800D03*
X138986000Y-90285800D03*
X138986000Y-87745800D03*
X138986000Y-85205800D03*
X138986000Y-82665800D03*
D19*
X138986000Y-77585800D03*
D15*
X138986000Y-80125800D03*
X138986000Y-72505800D03*
%TD*%
%TO.C,*%
X125400000Y-72416730D03*
%TD*%
%TO.C,*%
X125400000Y-102322000D03*
%TD*%
D14*
%TO.C,*%
X175260000Y-117856000D03*
%TD*%
D20*
%TO.C,X1*%
X172259000Y-69653000D03*
X172259000Y-63873000D03*
D21*
X171759000Y-71083000D03*
X171759000Y-62443000D03*
X175939000Y-71083000D03*
X175939000Y-62443000D03*
%TD*%
M02*
